<svg width="32" height="32" viewBox="0 0 32 32" fill="none" xmlns="http://www.w3.org/2000/svg">
<path d="M6.05231 0.0705707C5.04145 0.231611 3.92113 0.656758 3.1163 1.16565C2.67203 1.44908 1.48732 2.37023 1.48089 2.43464C1.48089 2.46041 1.81569 3.03371 2.22133 3.71008L2.95533 4.93399L2.6334 5.3849C2.40805 5.6941 1.95734 6.58948 1.15252 8.32228L0 10.8216L0.972233 12.4514C1.7835 13.8105 1.96378 14.0682 2.05392 14.0231C2.11187 13.9909 3.1163 13.3661 4.28169 12.6382C5.92354 11.6075 6.44507 11.3112 6.61247 11.3112C6.74125 11.3112 6.82495 11.3434 6.82495 11.3885C6.82495 11.4336 6.89577 12.0971 6.98592 12.8572C7.18551 14.5964 7.18551 14.4998 6.96016 14.59C6.81207 14.6544 6.71549 14.6479 6.36781 14.532C5.3827 14.197 4.32032 14.6479 3.86318 15.5949C3.65714 16.0329 3.63783 16.8123 3.83742 17.2375L3.97264 17.5273L3.77948 17.785C3.67646 17.9267 3.53481 18.1651 3.46398 18.3132C3.38028 18.5 3.30302 18.5902 3.21932 18.5902C2.73642 18.5902 1.84789 19.2086 1.51308 19.7755C1.38431 19.9945 0.965795 21.3665 0.965795 21.5662C0.965795 21.5984 1.46157 21.6178 2.06036 21.6178H3.15493V24.7097H0.0643863V31.9243H32V24.7097H25.8189V24.0463C25.8189 23.6855 25.7738 23.1315 25.7159 22.8224L25.6129 22.2555L25.8962 21.9527C26.4113 21.4052 26.7396 20.6966 26.8233 19.9429L26.8684 19.5565H25.8318L25.7867 19.9107C25.7288 20.3745 25.4326 20.9672 25.0656 21.3279C24.5312 21.8497 24.3123 21.9205 22.0652 22.2684C20.9642 22.4423 19.992 22.584 19.9147 22.584C19.6443 22.584 18.9811 21.4696 18.7686 20.658C18.7107 20.4261 18.6463 20.046 18.627 19.8077L18.5883 19.3761L19.3545 18.9896C20.4684 18.4227 20.6358 18.2166 20.829 17.1086C20.9513 16.3936 21.0865 16.1037 21.4406 15.8074C21.7304 15.5562 22.0652 15.4338 22.4644 15.4338H22.7284V15.962C22.7348 16.9605 23.0245 17.4372 24.0354 18.1264C24.4089 18.3841 24.7501 18.5902 24.7887 18.5902C24.8274 18.5902 25.1686 18.3841 25.5421 18.1264C26.4821 17.4887 26.759 17.0829 26.8298 16.2455L26.8684 15.7945L27.0551 16.0136C27.1517 16.136 27.2998 16.3936 27.3706 16.5933C27.7054 17.4823 28.0982 17.9396 28.8322 18.2875L29.2636 18.4936L30.635 18.5129L32 18.5387V17.4951H30.8346C29.4245 17.4951 29.2507 17.4565 28.8129 17.012C28.5618 16.7608 28.4523 16.574 28.3107 16.1875C28.0789 15.5562 27.6153 15.028 27.0101 14.7188C26.7783 14.5964 26.5722 14.4483 26.5594 14.3903C26.495 14.2099 25.9992 13.7526 25.6579 13.5786C25.3875 13.4369 25.2523 13.4047 24.8209 13.4047C24.0998 13.4047 23.5911 13.6559 23.1404 14.2292C23.0245 14.371 22.9537 14.3903 22.3936 14.416C21.8785 14.4418 21.7046 14.4805 21.3569 14.6479C20.5199 15.0344 20.0563 15.6657 19.8632 16.6577C19.6765 17.6497 19.67 17.6691 19.3159 17.8494C19.1421 17.9396 18.9875 18.0105 18.9746 18.0105C18.9553 18.0105 18.8845 17.8623 18.8072 17.6884C18.7171 17.4758 18.6463 17.1215 18.6076 16.6899C18.5368 15.9105 18.466 15.5884 18.2471 15.1633C18.1634 14.9958 18.0926 14.8347 18.0926 14.8025C18.0926 14.7768 18.202 14.6866 18.3372 14.6093C18.6205 14.4483 19.1099 13.9522 19.303 13.6237C19.4447 13.3854 19.6378 12.7348 19.6378 12.49C19.6378 12.3483 19.6185 12.3418 19.1292 12.3418H18.627L18.5819 12.6124C18.5175 12.9924 18.2664 13.4047 17.9573 13.6302C17.8157 13.7332 17.4165 13.9072 17.0753 14.0231C15.9356 14.3967 15.633 14.6093 14.9956 15.4403C14.7895 15.7108 14.5127 16.02 14.3903 16.1295C14.004 16.4387 13.4567 16.5482 13.006 16.3936L12.8 16.3163L13.5469 15.5691C13.959 15.1568 14.2938 14.7897 14.2938 14.751C14.2938 14.6737 13.7014 14.0811 13.6177 14.0811C13.5855 14.0811 13.2185 14.416 12.8064 14.8283L12.0596 15.5755L11.9823 15.3694C11.9437 15.2535 11.9115 14.8283 11.9115 14.4354C11.9115 13.6044 11.8986 13.6302 12.5553 13.147C13.167 12.6961 13.3151 12.548 13.5984 12.1228C13.901 11.6526 14.062 11.1501 14.165 10.3449C14.2616 9.59772 14.3903 9.28852 14.7767 8.86981C15.1694 8.45111 15.5879 8.27074 16.2833 8.23209L16.8177 8.19989L17.3843 7.43978C17.6998 7.02107 17.9702 6.62169 17.996 6.55083C18.0153 6.47354 18.0732 6.41556 18.1119 6.41556C18.3115 6.42844 19.6056 6.97598 19.625 7.06616C19.6378 7.13058 19.5155 7.18855 19.2 7.27229C18.672 7.40757 18.1827 7.72321 17.8736 8.12903C17.7449 8.29651 17.6419 8.45111 17.6419 8.47688C17.6419 8.4962 17.8414 8.61215 18.0797 8.7281L18.5175 8.94067L18.8008 8.6508C19.1485 8.30295 19.4575 8.20633 20.0885 8.23209L20.5328 8.25142L20.4298 8.45755C20.2302 8.87626 19.7022 9.24343 19.303 9.24987H19.1227V10.2999L19.464 10.2548C19.6443 10.2354 19.8567 10.1968 19.934 10.1775C20.037 10.1517 20.1272 10.229 20.3718 10.5382C20.9642 11.2919 21.872 11.9038 22.825 12.1872C23.1791 12.2903 23.604 12.3032 27.6089 12.3225L32 12.3483V11.3112H27.8278C23.8744 11.3112 23.6233 11.3047 23.1533 11.1824C22.8765 11.1115 22.5095 10.9762 22.3227 10.8796C21.9429 10.6735 21.3698 10.1646 21.1123 9.80385L20.932 9.55907L21.0801 9.35294C21.3376 9.01153 21.4535 8.7281 21.6402 7.99376C21.7433 7.60082 21.827 7.26585 21.827 7.23365C21.827 7.20788 21.5694 7.18855 21.2475 7.18855H20.668V6.71187C20.668 5.35914 20.0628 3.71652 19.406 3.25917C18.8974 2.91776 18.1312 3.07236 17.7899 3.58769C17.6612 3.78738 17.6097 3.96131 17.571 4.41866C17.5002 5.14656 17.2749 5.81005 16.9078 6.35114C16.3992 7.09193 16.2962 7.18211 15.9421 7.20144L15.6266 7.22076L15.1887 6.28673C14.2294 4.24474 14.0942 3.97419 13.7851 3.49751C12.697 1.82913 10.8362 0.573017 8.80805 0.128545C8.15775 -0.0131703 6.73481 -0.0453784 6.05231 0.0705707ZM6.50302 1.11411C6.50302 1.19785 5.84628 3.14322 5.82696 3.11745C5.82052 3.10457 5.62093 2.71807 5.3827 2.24784L4.95775 1.39754L5.32475 1.29448C5.98793 1.10123 6.50302 1.02393 6.50302 1.11411ZM9.07847 1.26227C9.49054 1.37178 10.1795 1.65521 10.1602 1.70674C10.0893 1.87422 9.36177 3.06592 9.32958 3.06592C9.30382 3.06592 9.27163 2.93709 9.24588 2.77605C9.20081 2.4282 8.93038 1.71962 8.71147 1.37178C8.57626 1.15276 8.56982 1.127 8.67284 1.1592C8.73722 1.17209 8.91751 1.22362 9.07847 1.26227ZM7.94527 2.13189C8.15775 2.55059 8.30584 3.13678 8.30584 3.55548V3.89045L8.77586 4.14811C9.73521 4.68277 10.4628 5.42355 10.9392 6.3447C11.0744 6.61525 11.5702 7.83272 12.0402 9.05018C12.7163 10.8216 12.8773 11.2983 12.8258 11.4014C12.7099 11.6526 12.4137 11.9618 11.9115 12.3418C10.9521 13.0697 10.8555 13.2952 10.8942 14.6415C10.9135 15.4789 10.9264 15.5562 11.1195 15.962C11.4028 16.5611 11.7634 16.9347 12.3493 17.2246C12.8129 17.45 12.8708 17.4629 13.4503 17.4629C14.0105 17.4629 14.107 17.4436 14.4869 17.2632C15.0342 17.0056 15.2402 16.8252 15.7746 16.1295C16.2575 15.4918 16.5795 15.2277 16.895 15.2148C17.0817 15.2084 17.1074 15.2406 17.307 15.6271C17.4873 15.9878 17.526 16.1553 17.5775 16.7544C17.629 17.4307 17.7384 17.8945 17.9445 18.2875C17.996 18.3905 18.0282 18.4807 18.0153 18.4936C18.0024 18.5 17.8994 18.558 17.7771 18.6224L17.5581 18.7319L17.5968 19.5436C17.6354 20.5678 17.7899 21.1862 18.2213 22.0365C18.6012 22.7966 19.2708 23.634 19.5155 23.6662C19.7215 23.692 23.8165 23.0607 24.2672 22.9319C24.5054 22.861 24.6342 22.8546 24.6793 22.8996C24.7179 22.9383 24.7565 23.357 24.7759 23.8401L24.808 24.7097H18.2149L17.938 24.5165C17.5646 24.2653 17.0881 23.7242 16.895 23.3441C16.6825 22.919 16.5473 22.3199 16.5473 21.7466C16.5473 20.2264 15.6137 18.996 14.1972 18.6224C12.8644 18.2746 11.3771 18.9445 10.7396 20.1748C10.5594 20.5291 10.5014 20.5871 10.3469 20.5871C10.1087 20.5871 9.97988 20.3617 9.65151 19.3632C9.50342 18.9187 9.32958 18.4485 9.25875 18.3132L9.13642 18.0684L9.30382 17.8687C9.39396 17.7592 9.54849 17.5209 9.64507 17.3405C9.78672 17.0635 9.81248 16.9283 9.81891 16.4645C9.81891 15.9556 9.80604 15.8912 9.58712 15.4982C9.33602 15.0344 8.91751 14.6673 8.48612 14.5256C8.34447 14.4805 8.21569 14.4096 8.20282 14.3774C8.18994 14.3194 7.85513 11.4465 7.85513 11.3434C7.85513 11.3305 8.02254 11.2854 8.22857 11.2468C8.71791 11.1437 9.19437 10.9118 9.54849 10.6026C9.86398 10.3256 10.2052 9.83606 10.2696 9.56551C10.3082 9.40447 10.2889 9.38514 9.90905 9.25631C9.40684 9.08883 9.35533 9.08883 9.30382 9.25631C9.233 9.46888 8.76298 9.95201 8.4668 10.1066C8.24789 10.2226 8.05473 10.2483 7.14688 10.2805C6.43219 10.3063 6.033 10.3449 5.92354 10.4094C5.8334 10.4545 5.00282 10.9698 4.08209 11.5495C3.15493 12.1228 2.36942 12.5995 2.33078 12.5995C2.24064 12.5995 1.19759 10.8603 1.20402 10.7314C1.22334 10.5446 3.21932 6.31894 3.45755 5.97753C3.79879 5.48153 4.49416 4.86313 5.03501 4.57326C5.29256 4.43798 5.76258 4.25118 6.07807 4.161L6.65755 3.99351L7.07606 2.72452L7.50101 1.45552L7.64266 1.63588C7.71992 1.73251 7.85513 1.95152 7.94527 2.13189ZM4.43622 2.6601C4.80322 3.40088 4.82897 3.49107 4.73239 3.54904C4.67445 3.58125 4.43622 3.73585 4.20443 3.88401C3.97264 4.0386 3.76016 4.161 3.73441 4.161C3.6507 4.161 2.82656 2.73096 2.85875 2.64722C2.88451 2.57636 3.91469 1.84846 3.99195 1.84201C4.01127 1.84201 4.21087 2.20919 4.43622 2.6601ZM11.6861 2.66654C11.9694 2.91132 12.2785 3.21408 12.3815 3.34291L12.5553 3.57481L11.9952 4.0386C11.6797 4.29627 11.3642 4.56038 11.2869 4.63123L11.1388 4.76007L10.6366 4.2705L10.128 3.78094L10.5851 3.00795C10.8362 2.5828 11.0744 2.22851 11.1066 2.22851C11.1453 2.22851 11.4028 2.4282 11.6861 2.66654ZM19.1421 4.61191C19.3481 5.02417 19.5928 5.76496 19.5412 5.82293C19.5348 5.82937 19.2901 5.74563 19.0004 5.62968C18.4982 5.43643 18.4724 5.41711 18.4982 5.26251C18.5175 5.17233 18.5497 4.90822 18.5755 4.67632C18.6012 4.44443 18.627 4.21897 18.6463 4.17388C18.7042 3.97419 18.9103 4.15455 19.1421 4.61191ZM13.592 5.3076L13.9654 6.09348L13.1412 6.51218L12.3107 6.92445L12.2012 6.62169C12.1368 6.45421 12.008 6.1579 11.9115 5.96465L11.7312 5.61036L12.3879 5.04994C12.7421 4.74074 13.0769 4.49596 13.1284 4.5024C13.1799 4.50884 13.3859 4.86957 13.592 5.3076ZM14.532 7.34315L14.6736 7.62658L14.3903 7.82627C14.0105 8.09682 13.7014 8.48976 13.4632 8.99221C13.3087 9.32073 13.2571 9.3787 13.2249 9.27564C13.1992 9.21122 13.0704 8.86981 12.9352 8.52197L12.6905 7.89069L13.5082 7.47843C13.959 7.25297 14.3388 7.06616 14.3646 7.06616C14.3839 7.05972 14.4612 7.18855 14.532 7.34315ZM25.3553 14.5771C25.7417 14.867 25.7867 14.9958 25.7867 15.7881C25.7867 16.6448 25.7481 16.7221 25.1557 17.1344L24.7887 17.3921L24.4217 17.1344C23.8744 16.7544 23.7972 16.6191 23.765 15.9749C23.7586 15.6722 23.765 15.3308 23.7843 15.2084C23.8358 14.9378 24.0998 14.6093 24.3702 14.4933C24.6278 14.371 25.1429 14.416 25.3553 14.5771ZM6.07807 15.4982C6.16821 15.5304 6.35493 15.6657 6.49658 15.7945L6.76056 16.0264L7.05674 15.7623C7.54608 15.3308 8.08692 15.3243 8.50543 15.7495C8.87887 16.1166 8.92394 16.7157 8.60845 17.0829L8.4668 17.2504L8.12555 17.0249C7.23058 16.4194 6.08451 16.3099 5.0994 16.7286C4.76459 16.8703 4.7002 16.8316 4.7002 16.4838C4.7002 15.7688 5.42133 15.247 6.07807 15.4982ZM7.22415 17.6691C7.59759 17.8365 8.08048 18.281 8.25433 18.6095C8.32515 18.7512 8.51187 19.2408 8.6664 19.6982C8.82736 20.162 9.01408 20.6515 9.08491 20.7932L9.21368 21.0445L9.02052 21.2699C8.91107 21.3923 8.77586 21.5791 8.72435 21.6886C8.63421 21.8561 8.17706 23.4858 8.17706 23.6276C8.17706 23.6598 8.75654 23.6791 9.46479 23.6791H10.7525L11.3899 24.0012C11.802 24.2009 12.0789 24.3877 12.169 24.5165L12.3042 24.7097H4.18511V22.0494C4.18511 19.1055 4.19799 18.996 4.59074 18.4227C4.83541 18.062 5.29256 17.727 5.72394 17.5918C6.12314 17.4629 6.83783 17.5016 7.22415 17.6691ZM14.429 19.8206C14.8604 20.0525 15.06 20.265 15.3046 20.7353C15.4398 21.0058 15.472 21.1991 15.5171 21.8819C15.5622 22.4874 15.6201 22.8352 15.7425 23.2024C15.9099 23.7049 16.264 24.3619 16.4507 24.5165C16.5022 24.5616 16.5473 24.6196 16.5473 24.6518C16.5473 24.684 15.8455 24.7097 14.9891 24.7097H13.4245L13.2507 24.3361C13.0125 23.8272 12.639 23.4794 11.963 23.1251L11.3835 22.8288L11.4093 21.9463C11.4414 20.9414 11.5445 20.6258 12.008 20.1684C12.6519 19.5242 13.6113 19.389 14.429 19.8206ZM3.15493 20.1362V20.5871H2.24708L2.39517 20.3166C2.53038 20.0782 2.96177 19.6853 3.10342 19.6853C3.12918 19.6853 3.15493 19.885 3.15493 20.1362ZM10.3469 22.6291C10.3276 22.642 10.128 22.6484 9.89618 22.6355L9.47767 22.6162L9.56137 22.3714C9.66439 22.0687 9.8833 21.8239 10.1408 21.7144L10.334 21.6307L10.3533 22.1138C10.3662 22.3843 10.3598 22.6098 10.3469 22.6291ZM2.12475 30.8937H1.09457V25.7404H2.12475V30.8937ZM5.21529 27.8017H3.15493V25.7404H5.21529V27.8017ZM7.27565 30.8937H6.24547V25.7404H7.27565V30.8937ZM10.3662 27.8017H8.30584V25.7404H10.3662V27.8017ZM12.4266 30.8937H11.3964V25.7404H12.4266V30.8937ZM15.5171 27.8017H13.4567V25.7404H15.5171V27.8017ZM17.5775 30.8937H16.5473V25.7404H17.5775V30.8937ZM20.668 27.8017H18.6076V25.7404H20.668V27.8017ZM22.7284 30.8937H21.6982V25.7404H22.7284V30.8937ZM25.8189 27.8017H23.7586V25.7404H25.8189V27.8017ZM27.8793 30.8937H26.8491V25.7404H27.8793V30.8937ZM30.9698 27.8017H28.9095V25.7404H30.9698V27.8017ZM5.21529 30.8937H3.15493V28.8324H5.21529V30.8937ZM10.3662 30.8937H8.30584V28.8324H10.3662V30.8937ZM15.5171 30.8937H13.4567V28.8324H15.5171V30.8937ZM20.668 30.8937H18.6076V28.8324H20.668V30.8937ZM25.8189 30.8937H23.7586V28.8324H25.8189V30.8937ZM30.9698 30.8937H28.9095V28.8324H30.9698V30.8937Z" fill="white"/>
<path d="M5.37626 6.31893C5.05433 6.63457 5.27968 7.18855 5.73038 7.18855C5.99437 7.18855 6.24547 6.93733 6.24547 6.67322C6.24547 6.40912 5.99437 6.15789 5.73038 6.15789C5.60805 6.15789 5.47284 6.21587 5.37626 6.31893Z" fill="white"/>
<path d="M5.37626 18.6868C5.27324 18.7835 5.21529 18.9187 5.21529 19.0411C5.21529 19.1635 5.27324 19.2988 5.37626 19.3954C5.47284 19.4985 5.60805 19.5564 5.73038 19.5564C5.85272 19.5564 5.98793 19.4985 6.08451 19.3954C6.18753 19.2988 6.24547 19.1635 6.24547 19.0411C6.24547 18.9187 6.18753 18.7835 6.08451 18.6868C5.98793 18.5838 5.85272 18.5258 5.73038 18.5258C5.60805 18.5258 5.47284 18.5838 5.37626 18.6868Z" fill="white"/>
<path d="M12.5875 20.7481C12.2656 21.0638 12.4909 21.6178 12.9417 21.6178C13.064 21.6178 13.1992 21.5598 13.2958 21.4567C13.3988 21.3601 13.4567 21.2248 13.4567 21.1024C13.4567 20.98 13.3988 20.8448 13.2958 20.7481C13.1992 20.6451 13.064 20.5871 12.9417 20.5871C12.8193 20.5871 12.6841 20.6451 12.5875 20.7481Z" fill="white"/>
<path d="M15.6781 10.4416C15.3561 10.7572 15.5815 11.3112 16.0322 11.3112C16.1545 11.3112 16.2897 11.2532 16.3863 11.1501C16.4893 11.0535 16.5473 10.9182 16.5473 10.7959C16.5473 10.6735 16.4893 10.5382 16.3863 10.4416C16.2897 10.3385 16.1545 10.2805 16.0322 10.2805C15.9099 10.2805 15.7746 10.3385 15.6781 10.4416Z" fill="white"/>
<path d="M21.8592 17.6562C21.5372 17.9718 21.7626 18.5258 22.2133 18.5258C22.4773 18.5258 22.7284 18.2746 22.7284 18.0105C22.7284 17.7464 22.4773 17.4951 22.2133 17.4951C22.0909 17.4951 21.9557 17.5531 21.8592 17.6562Z" fill="white"/>
</svg>
