<svg width="32" height="17" viewBox="0 0 32 17" fill="none" xmlns="http://www.w3.org/2000/svg">
<g clip-path="url(#clip0_5066_631)">
<path d="M29.5385 0.130737H2.46154C1.10207 0.130737 0 0.791978 0 1.60766C0 2.42334 1.10207 3.08458 2.46154 3.08458H29.5385C30.8979 3.08458 32 2.42334 32 1.60766C32 0.791978 30.8979 0.130737 29.5385 0.130737Z" fill="#D9D9D9"/>
<path d="M29.5385 7.02307H2.46154C1.10207 7.02307 0 7.68431 0 8.49999C0 9.31568 1.10207 9.97692 2.46154 9.97692H29.5385C30.8979 9.97692 32 9.31568 32 8.49999C32 7.68431 30.8979 7.02307 29.5385 7.02307Z" fill="#D9D9D9"/>
<path d="M29.5385 13.9153H2.46154C1.10207 13.9153 0 14.5766 0 15.3923C0 16.2079 1.10207 16.8692 2.46154 16.8692H29.5385C30.8979 16.8692 32 16.2079 32 15.3923C32 14.5766 30.8979 13.9153 29.5385 13.9153Z" fill="#D9D9D9"/>
</g>
<defs>
<clipPath id="clip0_5066_631">
<rect width="32" height="16.7385" fill="white" transform="translate(0 0.130737)"/>
</clipPath>
</defs>
</svg>
