<svg width="32" height="32" viewBox="0 0 32 32" fill="none" xmlns="http://www.w3.org/2000/svg">
<path d="M0 0H32V32H0V0Z" fill="white" fill-opacity="0.01"/>
<path d="M25.334 2.6665H6.66732C5.93094 2.6665 5.33398 3.26346 5.33398 3.99984V27.9998C5.33398 28.7362 5.93094 29.3332 6.66732 29.3332H25.334C26.0704 29.3332 26.6673 28.7362 26.6673 27.9998V3.99984C26.6673 3.26346 26.0704 2.6665 25.334 2.6665Z" stroke="white" stroke-linejoin="round"/>
<path d="M14.001 9.33301H22.001" stroke="white" stroke-linecap="round" stroke-linejoin="round"/>
<path d="M14.001 16H22.001" stroke="white" stroke-linecap="round" stroke-linejoin="round"/>
<path d="M14.001 22.6665H22.001" stroke="white" stroke-linecap="round" stroke-linejoin="round"/>
<path fill-rule="evenodd" clip-rule="evenodd" d="M10.0003 10.6667C10.7367 10.6667 11.3337 10.0697 11.3337 9.33333C11.3337 8.59693 10.7367 8 10.0003 8C9.26393 8 8.66699 8.59693 8.66699 9.33333C8.66699 10.0697 9.26393 10.6667 10.0003 10.6667Z" fill="white"/>
<path fill-rule="evenodd" clip-rule="evenodd" d="M10.0003 17.3332C10.7367 17.3332 11.3337 16.7362 11.3337 15.9998C11.3337 15.2634 10.7367 14.6665 10.0003 14.6665C9.26393 14.6665 8.66699 15.2634 8.66699 15.9998C8.66699 16.7362 9.26393 17.3332 10.0003 17.3332Z" fill="white"/>
<path fill-rule="evenodd" clip-rule="evenodd" d="M10.0003 24.0002C10.7367 24.0002 11.3337 23.4032 11.3337 22.6668C11.3337 21.9304 10.7367 21.3335 10.0003 21.3335C9.26393 21.3335 8.66699 21.9304 8.66699 22.6668C8.66699 23.4032 9.26393 24.0002 10.0003 24.0002Z" fill="white"/>
</svg>
