<svg width="26" height="26" viewBox="0 0 26 26" fill="none" xmlns="http://www.w3.org/2000/svg">
<circle cx="13" cy="13" r="12.5" fill="white" stroke="#005697"/>
<path d="M9.61777 9.0701C9.45094 9.0701 9.31547 9.20557 9.31547 9.3724C9.31547 9.53923 9.45094 9.6747 9.61777 9.6747C9.7846 9.6747 9.92007 9.53923 9.92007 9.3724C9.92007 9.20557 9.7846 9.0701 9.61777 9.0701Z" fill="#005697"/>
<path d="M12.3381 14.7222H11.4313V13.8155C11.4313 13.6486 11.2959 13.5132 11.129 13.5132C10.962 13.5132 10.8267 13.6486 10.8267 13.8155V14.7222H9.91997C9.75303 14.7222 9.61767 14.8576 9.61767 15.0245C9.61767 15.1913 9.75303 15.3268 9.91997 15.3268H10.8267V16.2335C10.8267 16.4004 10.962 16.5358 11.129 16.5358C11.2958 16.5358 11.4313 16.4004 11.4313 16.2335V15.3268H12.3381C12.505 15.3268 12.6404 15.1914 12.6404 15.0245C12.6404 14.8576 12.505 14.7222 12.3381 14.7222Z" fill="#005697"/>
<path d="M20.496 14.9943C19.8277 13.8371 18.3504 13.4409 17.1929 14.1094L15.9652 14.8181V12.1933C15.9652 11.8688 15.8579 11.5468 15.6629 11.2866L14.1517 9.2716V8.4136C14.5034 8.28886 14.7561 7.95293 14.7561 7.5588V6.16852C14.7561 5.66843 14.3494 5.26172 13.8493 5.26172H8.40877C7.90879 5.26172 7.50197 5.66843 7.50197 6.16852V7.5589C7.50197 7.95292 7.75475 8.28886 8.10647 8.4137V9.2717L6.59506 11.2867C6.40027 11.5468 6.29297 11.8688 6.29297 12.1933V18.0471C6.29297 18.8804 6.97093 19.5583 7.80417 19.5583H12.6617C13.3395 20.6944 14.8007 21.0745 15.9463 20.413L19.611 18.2973C20.7582 17.6348 21.1674 16.1579 20.496 14.9943ZM8.10647 6.16852C8.10647 6.00179 8.24204 5.86622 8.40867 5.86622H13.8492C14.0158 5.86622 14.1515 6.00179 14.1515 6.16852V7.5589C14.1515 7.72553 14.0159 7.8611 13.8492 7.8611H8.40877C8.24204 7.8611 8.10647 7.72553 8.10647 7.5589V6.16852ZM7.07885 11.6493L8.65051 9.55378C8.68971 9.50147 8.71097 9.43781 8.71097 9.3724V8.4656H13.5471V9.0701H10.8268C10.6598 9.0701 10.5245 9.20546 10.5245 9.3724C10.5245 9.53934 10.6598 9.6747 10.8268 9.6747H13.6981L15.1791 11.6493C15.2759 11.7784 15.336 11.9331 15.3542 12.0928H6.90387C6.92202 11.933 6.98218 11.7783 7.07885 11.6493ZM7.80427 18.9538C7.30429 18.9538 6.89757 18.5471 6.89757 18.0471V17.7418H12.389C12.2932 18.1338 12.2938 18.5523 12.4036 18.9539L7.80427 18.9538ZM12.626 17.1403H6.89747V12.6971H15.3606V15.167L13.5282 16.2249C13.1462 16.4457 12.8374 16.7599 12.626 17.1403ZM15.6441 19.8895C14.7766 20.3904 13.6683 20.0942 13.167 19.2261C12.6634 18.3497 12.9686 17.2464 13.8305 16.7485L15.4712 15.8011L17.2847 18.9422L15.6441 19.8895ZM19.3087 17.7738L17.8083 18.6401L15.9948 15.499L17.4952 14.6329C18.3632 14.1317 19.4712 14.4285 19.9725 15.2965C20.4758 16.1689 20.1697 17.2766 19.3087 17.7738Z" fill="#005697"/>
</svg>
