<svg width="21" height="20" viewBox="0 0 21 20" fill="none" xmlns="http://www.w3.org/2000/svg">
<path d="M19.0714 -0.00195312H1.92411C1.13839 -0.00195312 0.5 0.645369 0.5 1.44001V18.5561C0.5 19.3507 1.13839 19.998 1.92411 19.998H19.0714C19.8571 19.998 20.5 19.3507 20.5 18.5561V1.44001C20.5 0.645369 19.8571 -0.00195312 19.0714 -0.00195312ZM6.54464 17.1409H3.58036V7.59626H6.54911V17.1409H6.54464ZM5.0625 6.29269C4.11161 6.29269 3.34375 5.52037 3.34375 4.57394C3.34375 3.62751 4.11161 2.85519 5.0625 2.85519C6.00893 2.85519 6.78125 3.62751 6.78125 4.57394C6.78125 5.52483 6.01339 6.29269 5.0625 6.29269ZM17.6562 17.1409H14.692V12.498C14.692 11.3909 14.6696 9.9668 13.1518 9.9668C11.6071 9.9668 11.3705 11.1722 11.3705 12.4177V17.1409H8.40625V7.59626H11.25V8.89983H11.2902C11.6875 8.14983 12.6563 7.35965 14.0982 7.35965C17.0982 7.35965 17.6562 9.33733 17.6562 11.9088V17.1409Z" fill="#1E1E1E"/>
</svg>
