<svg width="1425" height="793" viewBox="0 0 1425 793" fill="none" xmlns="http://www.w3.org/2000/svg">
<path d="M396.4 206C424 206.2 451.8 206.4 474.6 206.2C487.9 206.1 499.3 205.9 508 205.6C512.4 205.5 515.9 205.3 518.6 205.1L522.6 204.7C560.1 195.3 580.2 164.2 582 129.7C584 95.2 567 59 531.7 41.3L522.8 36.8H36.8V204.4H262.4V98H289.2V204.6C294.4 204.7 301 204.8 308.6 204.9C325.2 205.2 346.6 205.5 369.6 205.8H396.5M10 10H689V36.8H571.8C598.5 61.9 610.7 97.5 609 131.2C606.7 175.3 580.2 218 529.3 230.8C526.9 231.4 523.7 231.7 520.8 231.9C517.6 232.1 513.6 232.3 509.1 232.5C500 232.8 488.3 233 474.9 233.1C452 233.2 424 233.1 396.5 232.9V345.1H369.7V232.6C346.5 232.3 324.9 232 308.2 231.7C300.8 231.6 294.4 231.5 289.3 231.4V405.4H863.3V432.2H642.1V684.7H615.3V432.2H289.2V573H508.1V599.8H289.2V756.2H1033V783H10V10ZM262.4 756.2V599.8H36.8V756.2H262.4ZM36.8 573H262.4V432.2H177V405.4H262.4V231.2H36.8V405.4H102.5V432.2H36.8V573Z" fill="white"/>
<path d="M396.4 206C424 206.2 451.8 206.4 474.6 206.2C487.9 206.1 499.3 205.9 508 205.6C512.4 205.5 515.9 205.3 518.6 205.1L522.6 204.7C560.1 195.3 580.2 164.2 582 129.7C584 95.2 567 59 531.7 41.3L522.8 36.8H36.8V204.4H262.4V98H289.2V204.6C294.4 204.7 301 204.8 308.6 204.9C325.2 205.2 346.6 205.5 369.6 205.8H396.5M10 10H689V36.8H571.8C598.5 61.9 610.7 97.5 609 131.2C606.7 175.3 580.2 218 529.3 230.8C526.9 231.4 523.7 231.7 520.8 231.9C517.6 232.1 513.6 232.3 509.1 232.5C500 232.8 488.3 233 474.9 233.1C452 233.2 424 233.1 396.5 232.9V345.1H369.7V232.6C346.5 232.3 324.9 232 308.2 231.7C300.8 231.6 294.4 231.5 289.3 231.4V405.4H863.3V432.2H642.1V684.7H615.3V432.2H289.2V573H508.1V599.8H289.2V756.2H1033V783H10V10ZM262.4 756.2V599.8H36.8V756.2H262.4ZM36.8 573H262.4V432.2H177V405.4H262.4V231.2H36.8V405.4H102.5V432.2H36.8V573Z" stroke="white" stroke-width="20"/>
<path d="M648.47 233.59L607.63 226.22C612.22 209.78 620.12 197.6 631.33 189.7C642.54 181.8 659.2 177.85 681.3 177.85C701.37 177.85 716.32 180.25 726.14 185.06C735.96 189.76 742.85 195.79 746.8 203.16C750.86 210.42 752.89 223.82 752.89 243.36L752.41 295.89C752.41 310.84 753.1 321.89 754.49 329.04C755.98 336.09 758.71 343.67 762.66 351.78H718.14C716.97 348.79 715.52 344.36 713.82 338.49C713.07 335.82 712.54 334.06 712.22 333.2C704.53 340.67 696.31 346.28 687.56 350.02C678.8 353.76 669.46 355.63 659.53 355.63C642.02 355.63 628.19 350.88 618.05 341.38C608.01 331.88 603 319.87 603 305.34C603 295.73 605.3 287.19 609.89 279.72C614.48 272.14 620.89 266.37 629.11 262.42C637.44 258.36 649.4 254.84 664.99 251.85C686.02 247.9 700.6 244.22 708.71 240.8V236.31C708.71 227.66 706.57 221.52 702.3 217.89C698.03 214.15 689.97 212.29 678.12 212.29C670.11 212.29 663.87 213.89 659.38 217.1C654.9 220.2 651.27 225.7 648.49 233.6L648.47 233.59ZM708.69 270.11C702.92 272.03 693.79 274.33 681.3 277C668.81 279.67 660.64 282.29 656.8 284.85C650.93 289.01 647.99 294.3 647.99 300.71C647.99 307.12 650.34 312.45 655.04 317.05C659.74 321.65 665.72 323.94 672.98 323.94C681.09 323.94 688.83 321.27 696.2 315.93C701.65 311.87 705.22 306.91 706.93 301.04C708.1 297.2 708.69 289.88 708.69 279.1V270.13V270.11ZM797.42 158.64V117H842.42V158.64H797.42ZM797.42 351.79V181.7H842.42V351.79H797.42Z" fill="white"/>
<path d="M1033.32 441.79H988.319V264.99C988.319 246.63 987.359 234.77 985.439 229.44C983.519 223.99 980.369 219.78 975.989 216.79C971.719 213.8 966.539 212.31 960.449 212.31C952.659 212.31 945.659 214.45 939.469 218.72C933.279 222.99 929.009 228.65 926.659 235.7C924.419 242.75 923.299 255.77 923.299 274.78V351.82H878.299V181.73H920.099V206.71C934.939 187.49 953.629 177.88 976.149 177.88C986.079 177.88 995.159 179.69 1003.38 183.33C1011.6 186.85 1017.8 191.39 1021.96 196.94C1026.23 202.49 1029.17 208.79 1030.77 215.84C1032.48 222.89 1033.33 232.98 1033.33 246.11V441.81L1033.32 441.79Z" fill="white"/>
<path d="M768 694.94H723V524.85H764.8V549.03C771.95 537.6 778.36 530.08 784.02 526.45C789.79 522.82 796.3 521 803.56 521C813.81 521 823.69 523.83 833.19 529.49L819.26 568.73C811.68 563.82 804.63 561.36 798.12 561.36C791.61 561.36 786.48 563.12 782.1 566.65C777.72 570.07 774.25 576.31 771.69 585.39C769.23 594.47 768.01 613.47 768.01 642.41V694.94H768ZM886.35 576.74L845.51 569.37C850.1 552.93 858 540.76 869.21 532.85C880.42 524.94 897.08 521 919.18 521C939.25 521 954.2 523.4 964.02 528.21C973.84 532.91 980.73 538.94 984.68 546.31C988.74 553.57 990.77 566.97 990.77 586.51L990.29 639.04C990.29 653.99 990.98 665.04 992.37 672.19C993.86 679.24 996.59 686.82 1000.54 694.93H956.02C954.85 691.94 953.41 687.51 951.7 681.64C950.95 678.97 950.42 677.21 950.1 676.36C942.41 683.83 934.19 689.44 925.44 693.18C916.68 696.92 907.34 698.79 897.41 698.79C879.9 698.79 866.07 694.04 855.93 684.54C845.89 675.04 840.87 663.03 840.87 648.5C840.87 638.89 843.17 630.35 847.76 622.88C852.35 615.3 858.76 609.53 866.98 605.58C875.31 601.52 887.27 598 902.86 595.01C923.89 591.06 938.47 587.38 946.58 583.96V579.47C946.58 570.82 944.45 564.68 940.17 561.05C935.9 557.31 927.84 555.45 915.99 555.45C907.98 555.45 901.74 557.05 897.25 560.25C892.77 563.35 889.14 568.84 886.36 576.75L886.35 576.74ZM946.57 613.26C940.81 615.18 931.68 617.48 919.18 620.15C906.69 622.82 898.52 625.44 894.68 628C888.81 632.16 885.87 637.45 885.87 643.85C885.87 650.25 888.22 655.6 892.92 660.19C897.62 664.78 903.6 667.08 910.86 667.08C918.97 667.08 926.72 664.41 934.08 659.07C939.53 655.01 943.1 650.05 944.81 644.17C945.98 640.33 946.57 633.01 946.57 622.23V613.26ZM1183.6 575.14L1139.24 583.15C1137.74 574.29 1134.33 567.62 1128.99 563.13C1123.76 558.65 1116.92 556.4 1108.49 556.4C1097.28 556.4 1088.31 560.3 1081.58 568.09C1074.96 575.78 1071.65 588.7 1071.65 606.85C1071.65 627.03 1075.01 641.28 1081.74 649.61C1088.57 657.94 1097.7 662.1 1109.13 662.1C1117.67 662.1 1124.66 659.7 1130.11 654.89C1135.55 649.98 1139.4 641.6 1141.64 629.74L1185.84 637.27C1181.25 657.56 1172.44 672.88 1159.42 683.24C1146.39 693.6 1128.93 698.77 1107.05 698.77C1082.17 698.77 1062.31 690.92 1047.47 675.23C1032.73 659.53 1025.37 637.81 1025.37 610.05C1025.37 582.29 1032.79 560.14 1047.63 544.55C1062.47 528.86 1082.54 521.01 1107.85 521.01C1128.56 521.01 1145 525.49 1157.17 534.46C1169.45 543.32 1178.26 556.88 1183.6 575.14Z" fill="white"/>
<path d="M1207.38 695V396H1252.38V584.81L1305.08 524.91H1360.49L1302.35 587.05L1364.65 695H1316.13L1273.36 618.6L1252.38 640.54V694.99H1207.38V695Z" fill="white"/>
</svg>
