<svg width="56" height="38" viewBox="0 0 56 38" fill="none" xmlns="http://www.w3.org/2000/svg">
<path d="M20.7508 14.0907H18.8151V4.667H22.4803C23.1858 4.667 23.806 4.79639 24.3417 5.05517C24.8774 5.31396 25.2892 5.68167 25.5771 6.1583C25.8649 6.63493 26.0092 7.17736 26.0092 7.78631C26.0092 8.7096 25.6944 9.4377 25.064 9.97063C24.4335 10.5035 23.5619 10.7696 22.4475 10.7696H20.7508V14.0907ZM20.7508 9.19793L22.4781 9.14895C22.9898 9.14895 23.3826 9.07731 23.6515 8.83533C23.9205 8.59409 24.0546 8.24832 24.0546 7.79946C24.0546 7.35061 23.919 6.96463 23.6479 6.67952C23.3768 6.39442 23.0029 6.24822 22.5255 6.23944H20.7508V9.19793Z" fill="white"/>
<path d="M30.8799 14.0666C30.7939 13.8985 30.7312 13.6894 30.6926 13.4386C30.2407 13.9438 29.654 14.196 28.9311 14.196C28.2474 14.196 27.6804 13.9979 27.2307 13.6002C26.7811 13.2032 26.5566 12.7025 26.5566 12.0987C26.5566 11.3567 26.8306 10.7872 27.3794 10.3902C27.9282 9.99329 28.7204 9.79299 29.7568 9.7886H30.6146V9.38726C30.6146 9.06342 30.5315 8.80463 30.3661 8.61091C30.2007 8.41645 29.939 8.31996 29.5819 8.31996C29.2678 8.31996 29.0214 8.39525 28.8429 8.54658C28.6643 8.6979 28.5754 8.90478 28.5754 9.16795H26.7104C26.7104 8.76223 26.835 8.38721 27.0842 8.04217C27.3335 7.69712 27.6862 7.42664 28.1425 7.22999C28.598 7.03334 29.1103 6.93539 29.6781 6.93539C30.5381 6.93539 31.221 7.1525 31.7268 7.586C32.2319 8.0195 32.4848 8.62918 32.4848 9.41431V12.4496C32.4891 13.1141 32.5817 13.617 32.7624 13.9577V14.0681H30.8785L30.8799 14.0666ZM29.3377 12.7661C29.6132 12.7661 29.8669 12.7047 30.0994 12.5819C30.3318 12.4591 30.5038 12.2938 30.6154 12.087V10.883H29.9186C28.985 10.883 28.4879 11.2068 28.4282 11.8538L28.4216 11.9641C28.4216 12.1973 28.5032 12.3889 28.6665 12.5402C28.8298 12.6915 29.0535 12.7668 29.3377 12.7668V12.7661Z" fill="white"/>
<path d="M33.5751 5.25182C33.5751 4.9711 33.6684 4.74083 33.8557 4.55953C34.043 4.37824 34.2973 4.28759 34.6202 4.28759C34.9431 4.28759 35.1923 4.37824 35.3818 4.55953C35.5713 4.74083 35.666 4.97184 35.666 5.25182C35.666 5.53181 35.5706 5.76939 35.3789 5.95069C35.1872 6.13198 34.9343 6.22263 34.6209 6.22263C34.3075 6.22263 34.0539 6.13198 33.863 5.95069C33.6713 5.76939 33.5758 5.53619 33.5758 5.25182H33.5751ZM35.556 14.0666H33.6851V7.06405H35.556V14.0666Z" fill="white"/>
<path d="M38.4778 7.06405L38.5361 7.8733C39.0354 7.24754 39.7037 6.93465 40.5425 6.93465C41.2823 6.93465 41.8333 7.1525 42.194 7.5882C42.5555 8.02389 42.7399 8.67524 42.7487 9.54297V14.0666H40.8844V9.5883C40.8844 9.19135 40.7984 8.90332 40.6264 8.72422C40.4544 8.54512 40.1679 8.45593 39.7685 8.45593C39.2438 8.45593 38.8502 8.68036 38.5879 9.12921V14.0673H36.7228V7.06478H38.4778V7.06405Z" fill="white"/>
<path d="M32.624 19.7511H29.8574V27.299H27.996V19.7511H25.2666V18.2393H32.624V19.7511Z" fill="white"/>
<path d="M36.6179 22.2527C36.3737 22.2198 36.1587 22.203 35.9729 22.203C35.2943 22.203 34.8498 22.4332 34.6391 22.8938V27.299H32.8463V20.5662H34.54L34.5896 21.3689C34.9496 20.7511 35.4474 20.4419 36.0844 20.4419C36.2826 20.4419 36.4692 20.469 36.6427 20.5231L36.6179 22.2527Z" fill="white"/>
<path d="M40.8661 27.299C40.7831 27.1374 40.7233 26.9364 40.6861 26.6952C40.2518 27.1806 39.6877 27.4233 38.9924 27.4233C38.335 27.4233 37.7898 27.2325 37.3576 26.8509C36.9254 26.4693 36.7097 25.9882 36.7097 25.4071C36.7097 24.6936 36.9735 24.146 37.5005 23.7645C38.0274 23.3829 38.7897 23.1899 39.7868 23.1855H40.6118V22.7995C40.6118 22.4881 40.5323 22.2395 40.3727 22.0531C40.2131 21.8667 39.9624 21.7731 39.6191 21.7731C39.3174 21.7731 39.0805 21.8455 38.9085 21.991C38.7373 22.1364 38.6513 22.3353 38.6513 22.5882H36.8584C36.8584 22.1986 36.9779 21.8375 37.2184 21.5056C37.4582 21.1737 37.7971 20.9134 38.2358 20.7248C38.6739 20.5362 39.1665 20.4419 39.7124 20.4419C40.5396 20.4419 41.1963 20.6503 41.6817 21.0669C42.1678 21.4836 42.4105 22.0699 42.4105 22.8243V25.7426C42.4149 26.3815 42.5038 26.8648 42.6772 27.1923V27.2983H40.8661V27.299ZM39.3837 26.0482C39.6483 26.0482 39.8924 25.989 40.1155 25.8706C40.3385 25.7521 40.5039 25.5935 40.6118 25.3947V24.2374H39.942C39.0448 24.2374 38.5667 24.5488 38.5092 25.171L38.5026 25.277C38.5026 25.5006 38.5813 25.6856 38.738 25.8311C38.8954 25.9766 39.1104 26.0489 39.383 26.0489L39.3837 26.0482Z" fill="white"/>
<path d="M46.2616 25.9736C46.5924 25.9736 46.8614 25.8822 47.0684 25.6995C47.2753 25.5167 47.3825 25.274 47.3912 24.9714H49.0726C49.0682 25.4275 48.9443 25.8457 48.7002 26.2251C48.456 26.6045 48.1222 26.8991 47.6981 27.1089C47.2739 27.318 46.806 27.4233 46.2929 27.4233C45.3338 27.4233 44.5765 27.1177 44.0226 26.5051C43.4687 25.8932 43.1911 25.0481 43.1911 23.9699V23.8514C43.1911 22.8148 43.4658 21.9873 44.0161 21.3689C44.5663 20.7511 45.3207 20.4419 46.2805 20.4419C47.1201 20.4419 47.7928 20.6817 48.3001 21.1605C48.8066 21.6393 49.0639 22.2775 49.0726 23.0736H47.3912C47.3832 22.7235 47.2753 22.4391 47.0684 22.2198C46.8614 22.0005 46.5888 21.8916 46.2492 21.8916C45.8316 21.8916 45.516 22.0443 45.3032 22.3499C45.0904 22.6555 44.9839 23.1504 44.9839 23.8361V24.0232C44.9839 24.717 45.0896 25.2155 45.3003 25.5189C45.5109 25.8223 45.8316 25.9736 46.2616 25.9736Z" fill="white"/>
<path d="M52.2153 24.5986L51.5703 25.2455V27.299H49.7774V17.7415H51.5703V23.0363L51.9179 22.5882L53.6365 20.5662H55.7894L53.3639 23.3726L56 27.299H53.9404L52.216 24.5986H52.2153Z" fill="white"/>
<path d="M14.604 36.2505V28.8034H25.3387V27.231H14.604V19.784H32.6859V18.2115H14.604V10.7711H22.1378V9.19866H14.604V1.75018H29.9762V0.177734H0.0102034V18.2108H0V19.7833H0.0102034V37.8229H42.7487V36.2505H14.604ZM1.57789 1.75018H13.0363V9.19719H1.57789V1.75018ZM1.57789 10.7704H13.0363V18.2108H1.57789V10.7704ZM1.57789 19.7833H13.0363V27.2303H1.57789V19.7833ZM13.0363 28.8034V36.2505H1.57789V28.8034H13.0363Z" fill="white"/>
</svg>
