<svg width="40" height="49" viewBox="0 0 40 49" fill="none" xmlns="http://www.w3.org/2000/svg">
<path d="M3.49703 0H36.4328C37.1746 0 37.8917 0.268282 38.4523 0.75564C40.4658 2.50599 40.523 5.6207 38.5751 7.44424L38.4919 7.52218C37.9079 8.06892 37.1387 8.373 36.3399 8.373H3.54092C1.93727 8.373 0.551532 7.24934 0.215521 5.67653L0.123532 5.24594C-0.0473527 4.44606 -0.0408721 3.61828 0.142515 2.82119L0.18324 2.64418C0.539337 1.0964 1.91339 0 3.49703 0Z" fill="#7A3A5F"/>
<path d="M3.49703 9.92356H36.4328C37.1746 9.92356 37.8917 10.1918 38.4523 10.6792C40.4658 12.4296 40.523 15.5443 38.5751 17.3678L38.4919 17.4457C37.9079 17.9925 37.1387 18.2966 36.3399 18.2966H3.54092C1.93727 18.2966 0.551532 17.1729 0.215521 15.6001L0.123532 15.1695C-0.0473527 14.3696 -0.0408721 13.5418 0.142515 12.7447L0.18324 12.5677C0.539337 11.02 1.91339 9.92356 3.49703 9.92356Z" fill="#B53F2F"/>
<path d="M3.49703 19.8471H36.4328C37.1746 19.8471 37.8917 20.1154 38.4523 20.6028C40.4658 22.3531 40.523 25.4678 38.5751 27.2914L38.4919 27.3693C37.9079 27.916 37.1387 28.2201 36.3399 28.2201H3.54092C1.93727 28.2201 0.551532 27.0965 0.215521 25.5236L0.123532 25.0931C-0.0473527 24.2932 -0.0408721 23.4654 0.142515 22.6683L0.18324 22.4913C0.539337 20.9435 1.91339 19.8471 3.49703 19.8471Z" fill="#B8923B"/>
<path d="M3.49703 29.7707H36.4328C37.1746 29.7707 37.8917 30.039 38.4523 30.5263C40.4658 32.2767 40.523 35.3914 38.5751 37.2149L38.4919 37.2929C37.9079 37.8396 37.1387 38.1437 36.3399 38.1437H3.54092C1.93727 38.1437 0.551532 37.02 0.215521 35.4472L0.123532 35.0166C-0.0473527 34.2167 -0.0408721 33.389 0.142515 32.5919L0.18324 32.4149C0.539337 30.8671 1.91339 29.7707 3.49703 29.7707Z" fill="#939238"/>
<path d="M3.49703 39.6942H36.4328C37.1746 39.6942 37.8917 39.9625 38.4523 40.4499C40.4658 42.2002 40.523 45.3149 38.5751 47.1385L38.4919 47.2164C37.9079 47.7632 37.1387 48.0672 36.3399 48.0672H3.54092C1.93727 48.0672 0.551532 46.9436 0.215521 45.3708L0.123532 44.9402C-0.0473527 44.1403 -0.0408721 43.3125 0.142515 42.5154L0.18324 42.3384C0.539337 40.7906 1.91339 39.6942 3.49703 39.6942Z" fill="#ABC6DB"/>
</svg>
