<svg width="14" height="19" viewBox="0 0 14 19" fill="none" xmlns="http://www.w3.org/2000/svg">
<g clip-path="url(#clip0_4711_4145)">
<mask id="mask0_4711_4145" style="mask-type:luminance" maskUnits="userSpaceOnUse" x="0" y="0" width="14" height="19">
<path d="M14 0H0V18.3448H14V0Z" fill="white"/>
</mask>
<g mask="url(#mask0_4711_4145)">
<path fill-rule="evenodd" clip-rule="evenodd" d="M1.02942 0C0.779578 0 0.582159 0.204248 0.582159 0.449843V17.5439C0.582159 17.9047 0.871756 18.2022 1.2353 18.2022H12.7647C13.1283 18.2022 13.4178 17.9046 13.4178 17.5439V4.56392C13.4178 4.40854 13.3633 4.25779 13.2633 4.13868L9.98465 0.233088C9.86097 0.0857206 9.67878 0 9.48606 0H1.02942ZM1.06492 17.5439V0.482759H9.22923V4.2022C9.22923 4.56293 9.51879 4.86051 9.88236 4.86051H12.9351V17.5439C12.9351 17.6437 12.856 17.7194 12.7647 17.7194H1.2353C1.14403 17.7194 1.06492 17.6437 1.06492 17.5439Z" fill="white"/>
<path d="M2.48609 11.4875H3.08794C3.25853 11.4875 3.3991 11.4578 3.50965 11.3983C3.62156 11.3375 3.70481 11.254 3.7594 11.1476C3.81535 11.0398 3.84333 10.9161 3.84333 10.7765C3.84333 10.6356 3.81535 10.5126 3.7594 10.4076C3.70481 10.3012 3.62156 10.2189 3.50965 10.1609C3.39774 10.1015 3.25581 10.0717 3.08385 10.0717H2.48609V11.4875Z" fill="white"/>
<path d="M11.1465 12.8494H10.4238V11.7217H11.1669C11.3089 11.7217 11.431 11.7473 11.5333 11.7984C11.6371 11.8496 11.7169 11.92 11.7729 12.0098C11.8288 12.0997 11.8568 12.2033 11.8568 12.3207C11.8568 12.4811 11.8002 12.6096 11.6869 12.7063C11.5737 12.8017 11.3935 12.8494 11.1465 12.8494Z" fill="white"/>
<path d="M11.081 11.1144H10.4238V10.0634H11.0973C11.2938 10.0634 11.4453 10.1105 11.5518 10.2044C11.6596 10.2984 11.7135 10.422 11.7135 10.5755C11.7135 10.6874 11.6855 10.7834 11.6296 10.8636C11.575 10.9437 11.4999 11.0059 11.4044 11.0501C11.3102 11.093 11.2024 11.1144 11.081 11.1144Z" fill="white"/>
<path fill-rule="evenodd" clip-rule="evenodd" d="M1.23529 7.32915H12.7647C13.447 7.32915 14 7.88915 14 8.57993V14.4169C14 15.1077 13.447 15.6677 12.7647 15.6677H1.23529C0.553058 15.6677 0 15.1077 0 14.4169V8.57993C0 7.88915 0.553058 7.32915 1.23529 7.32915ZM1.59968 9.338V13.5831H2.48609V12.2067H3.23124C3.55333 12.2067 3.82764 12.1466 4.05419 12.0264C4.28211 11.9062 4.45612 11.7383 4.57619 11.5227C4.6963 11.3072 4.75634 11.0584 4.75634 10.7765C4.75634 10.4946 4.697 10.2459 4.57825 10.0303C4.4609 9.81333 4.2903 9.64407 4.06647 9.52251C3.84265 9.39951 3.57175 9.338 3.25376 9.338H1.59968ZM8.80812 9.338H7.92173V12.0181C7.92173 12.1798 7.88625 12.3235 7.81523 12.4492C7.74567 12.575 7.6467 12.6738 7.51843 12.7457C7.39152 12.8175 7.24205 12.8535 7.07014 12.8535C6.89954 12.8535 6.75012 12.8175 6.62181 12.7457C6.49349 12.6738 6.3939 12.575 6.32288 12.4492C6.25332 12.3235 6.21851 12.1798 6.21851 12.0181V9.338H5.33212V12.0948C5.33212 12.4043 5.40443 12.6752 5.54912 12.9074C5.69375 13.1395 5.89641 13.3205 6.15705 13.4504C6.41774 13.5789 6.72212 13.6432 7.07014 13.6432C7.41677 13.6432 7.72042 13.5789 7.98106 13.4504C8.24175 13.3205 8.44441 13.1395 8.5891 12.9074C8.73508 12.6752 8.80812 12.4043 8.80812 12.0948V9.338ZM9.53743 9.338V13.5831H11.3287C11.6425 13.5831 11.9066 13.532 12.1209 13.4297C12.3352 13.3274 12.4969 13.1885 12.606 13.0131C12.7166 12.8362 12.7719 12.6351 12.7719 12.4099C12.7719 12.2012 12.7282 12.0216 12.6408 11.871C12.5535 11.719 12.4395 11.6008 12.299 11.5165C12.1598 11.4322 12.0104 11.3866 11.8507 11.3797V11.3383C11.9967 11.3051 12.1264 11.2491 12.2396 11.1704C12.3543 11.0902 12.4443 10.988 12.5098 10.8636C12.5753 10.7379 12.6081 10.592 12.6081 10.4262C12.6081 10.2134 12.5562 10.0255 12.4525 9.86242C12.3488 9.698 12.1939 9.56944 11.9878 9.47689C11.7817 9.3843 11.5245 9.338 11.2161 9.338H9.53743Z" fill="white"/>
</g>
</g>
<defs>
<clipPath id="clip0_4711_4145">
<rect width="14" height="18.3448" fill="white"/>
</clipPath>
</defs>
</svg>
