<svg width="26" height="26" viewBox="0 0 26 26" fill="none" xmlns="http://www.w3.org/2000/svg">
<circle cx="13" cy="13" r="12.5" fill="white" stroke="#005697"/>
<path d="M18.5113 10.2288C17.5621 10.2288 16.7897 11.0021 16.7897 11.9527C16.7897 12.7268 17.3028 13.3832 18.0064 13.5997V16.1507C18.0064 18.1235 16.4013 19.7286 14.4285 19.7286C12.4556 19.7286 10.8506 18.1235 10.8506 16.1507V15.5829C13.1333 15.3309 14.9148 13.3907 14.9148 11.0421V5.93731H13.3366C13.132 5.53678 12.7161 5.26172 12.2369 5.26172C11.5563 5.26172 11.0026 5.81649 11.0026 6.49837C11.0026 7.17943 11.5564 7.73358 12.2369 7.73358C12.7597 7.73358 13.2074 7.40672 13.3871 6.94666H13.9055V11.0422C13.9055 13.0049 12.3088 14.6017 10.346 14.6017C8.38333 14.6017 6.7866 13.0049 6.7866 11.0422V6.94666H7.29896C7.47869 7.40672 7.92626 7.73358 8.44895 7.73358C9.12938 7.73358 9.68302 7.17943 9.68302 6.49837C9.68312 5.81649 9.12949 5.26172 8.44905 5.26172C7.96991 5.26172 7.55401 5.53678 7.34952 5.93731H5.77734V11.0422C5.77734 13.3907 7.55886 15.3309 9.84139 15.5829V16.1508C9.84139 18.6802 11.8992 20.7379 14.4285 20.7379C16.958 20.7379 19.0158 18.6801 19.0158 16.1508V13.5997C19.7193 13.3834 20.2324 12.727 20.2324 11.9527C20.2325 11.0021 19.4604 10.2288 18.5113 10.2288ZM12.2369 6.72422C12.1128 6.72422 12.0119 6.6229 12.0119 6.49837C12.0119 6.37301 12.1128 6.27097 12.2369 6.27097C12.3612 6.27097 12.4623 6.37301 12.4623 6.49837C12.4623 6.6229 12.3612 6.72422 12.2369 6.72422ZM8.44905 6.27108C8.57296 6.27108 8.67376 6.37312 8.67376 6.49847C8.67376 6.623 8.57296 6.72432 8.44905 6.72432C8.32483 6.72432 8.22382 6.623 8.22382 6.49847C8.22392 6.37301 8.32483 6.27108 8.44905 6.27108ZM18.5113 12.6661C18.1185 12.6661 17.7991 12.3461 17.7991 11.9528C17.7991 11.5587 18.1187 11.2381 18.5113 11.2381C18.9038 11.2381 19.2232 11.5587 19.2232 11.9528C19.2233 12.3461 18.9038 12.6661 18.5113 12.6661Z" fill="#005697"/>
</svg>
