<svg width="20" height="15" viewBox="0 0 20 15" fill="none" xmlns="http://www.w3.org/2000/svg">
<path d="M16.125 5.86671C15.5583 2.99171 13.0333 0.833374 10 0.833374C7.59167 0.833374 5.5 2.20004 4.45833 4.20004C1.95 4.46671 0 6.59171 0 9.16671C0 11.925 2.24167 14.1667 5 14.1667H15.8333C18.1333 14.1667 20 12.3 20 10C20 7.80004 18.2917 6.01671 16.125 5.86671ZM15.8333 12.5H5C3.15833 12.5 1.66667 11.0084 1.66667 9.16671C1.66667 7.45837 2.94167 6.03337 4.63333 5.85837L5.525 5.76671L5.94167 4.97504C6.73333 3.45004 8.28333 2.50004 10 2.50004C12.1833 2.50004 14.0667 4.05004 14.4917 6.19171L14.7417 7.44171L16.0167 7.53337C17.3167 7.61671 18.3333 8.70837 18.3333 10C18.3333 11.375 17.2083 12.5 15.8333 12.5ZM6.66667 8.33337H8.79167V10.8334H11.2083V8.33337H13.3333L10 5.00004L6.66667 8.33337Z" fill="#80A7C5"/>
</svg>
