<svg width="21" height="20" viewBox="0 0 21 20" fill="none" xmlns="http://www.w3.org/2000/svg">
<path d="M14.0713 6.12831C13.4865 2.52678 12.1072 -0.00195312 10.502 -0.00195312C8.89685 -0.00195312 7.51754 2.52678 6.93275 6.12831H14.0713ZM6.63027 10.0001C6.63027 10.8954 6.67867 11.7544 6.76336 12.5812H14.2366C14.3213 11.7544 14.3697 10.8954 14.3697 10.0001C14.3697 9.10472 14.3213 8.24568 14.2366 7.4189H6.76336C6.67867 8.24568 6.63027 9.10472 6.63027 10.0001ZM19.7257 6.12831C18.5722 3.38986 16.237 1.2725 13.3534 0.417486C14.3375 1.78066 15.015 3.8335 15.3699 6.12831H19.7257ZM7.6466 0.417486C4.76699 1.2725 2.42781 3.38986 1.27838 6.12831H5.6341C5.98498 3.8335 6.66253 1.78066 7.6466 0.417486ZM20.1572 7.4189H15.5313C15.616 8.26584 15.6643 9.13295 15.6643 10.0001C15.6643 10.8672 15.616 11.7343 15.5313 12.5812H20.1532C20.375 11.7544 20.5 10.8954 20.5 10.0001C20.5 9.10472 20.375 8.24568 20.1572 7.4189ZM5.33969 10.0001C5.33969 9.13295 5.38808 8.26584 5.47278 7.4189H0.846844C0.629058 8.24568 0.5 9.10472 0.5 10.0001C0.5 10.8954 0.629058 11.7544 0.846844 12.5812H5.46874C5.38808 11.7343 5.33969 10.8672 5.33969 10.0001ZM6.93275 13.8718C7.51754 17.4733 8.89685 20.0021 10.502 20.0021C12.1072 20.0021 13.4865 17.4733 14.0713 13.8718H6.93275ZM13.3574 19.5826C16.237 18.7276 18.5762 16.6103 19.7297 13.8718H15.374C15.0191 16.1666 14.3415 18.2195 13.3574 19.5826ZM1.27838 13.8718C2.43184 16.6103 4.76699 18.7276 7.65064 19.5826C6.66657 18.2195 5.98901 16.1666 5.6341 13.8718H1.27838Z" fill="#1E1E1E"/>
</svg>
