<svg xmlns="http://www.w3.org/2000/svg" width="268" height="292" fill="none"><g id="undraw_taken_re_yn20 1"><g id="nave"><g id="nave-glass"><path id="Vector" fill="#ABC6DB" d="M185.902 59.24c-18.508-2.942-39.585-4.512-61.536-4.512-20.088 0-39.442 1.313-56.764 3.789.004-.265.008-.53.02-.795a58.816 58.816 0 0 1 18.056-40.653A59.279 59.279 0 0 1 127.11.552a59.277 59.277 0 0 1 41.228 17.02 58.807 58.807 0 0 1 17.564 41.668Z"/><g id="Group" opacity=".1"><path id="Vector_2" fill="#fff" d="M134.51.53a59.398 59.398 0 0 0-24.529 1.84 59.244 59.244 0 0 0-21.659 11.614 58.97 58.97 0 0 0-15.046 19.384 58.753 58.753 0 0 0-5.833 23.803c-.012.265-.016.53-.02.794a349.28 349.28 0 0 1 15.946-1.892 58.813 58.813 0 0 1 15.492-36.979A59.238 59.238 0 0 1 134.51.53Z"/></g></g><g id="nave-body" fill="#3F3D56"><path id="Vector_3" d="M211.779 63.915a239.033 239.033 0 0 0-25.884-5.473 375.952 375.952 0 0 0-43.171-4.133 451.736 451.736 0 0 0-32.956-.134 387.912 387.912 0 0 0-42.146 3.547 248.697 248.697 0 0 0-30.669 6.193C13.446 70.388.5 79.065.5 88.342s12.946 17.953 36.453 24.427c16.532 4.556 36.914 7.66 59.123 9.083 9.167.594 18.643.894 28.29.894 9.679 0 19.188-.304 28.382-.898 20.212-1.301 38.911-3.994 54.561-7.909 1.126-.28 2.25-.57 3.371-.87.369-.102.734-.201 1.099-.3a.475.475 0 0 1 .064-.02c.349-.095.695-.194 1.04-.289.691-.197 1.374-.391 2.045-.593l.087-.023c.575-.172 1.149-.346 1.723-.522.464-.147.925-.289 1.382-.435.333-.107.663-.214.988-.321.238-.079.473-.154.703-.233.314-.103.627-.21.937-.316.131-.044.262-.087.389-.135.298-.099.587-.202.877-.304.314-.111.628-.226.937-.337.258-.09.516-.185.77-.28.215-.083.425-.162.64-.242a96.73 96.73 0 0 0 1.719-.664c.282-.115.563-.225.841-.34.714-.292 1.425-.591 2.132-.898.207-.095.417-.186.62-.273l.46-.209a65.118 65.118 0 0 0 1.517-.704 61.402 61.402 0 0 0 4.18-2.183c8.119-4.63 12.403-9.768 12.403-15.106 0-9.278-12.947-17.954-36.454-24.427Zm-.214 48.095c-16.551 4.559-36.989 7.664-59.257 9.075-9.303.584-18.621.874-27.942.87a440.06 440.06 0 0 1-27.85-.866c-22.304-1.408-42.773-4.512-59.348-9.079-23.134-6.375-35.874-14.778-35.874-23.668a9.49 9.49 0 0 1 .294-2.33c2.024-8.02 14.479-15.525 35.58-21.338a248.506 248.506 0 0 1 30.434-6.157 388.987 388.987 0 0 1 42.401-3.56c10.824-.343 21.658-.3 32.479.13a375.4 375.4 0 0 1 43.42 4.153 238.488 238.488 0 0 1 25.663 5.434c21.097 5.813 33.547 13.315 35.576 21.33.197.764.297 1.55.298 2.338 0 8.89-12.74 17.293-35.874 23.668Z"/><path id="Vector_4" d="M248.006 88.702c0 5.283-4.371 10.281-12.176 14.746a64.509 64.509 0 0 1-4.18 2.183c-.503.241-1.008.476-1.517.704-.155.071-.306.138-.46.21-.203.087-.413.177-.62.272-.707.307-1.418.606-2.132.898-.278.115-.559.225-.841.34a96.73 96.73 0 0 1-1.719.664c-.215.08-.425.159-.64.242-.254.095-.512.19-.77.28-.309.111-.623.226-.937.337-.29.102-.579.205-.877.304-.127.048-.258.091-.389.135-.31.106-.623.213-.937.316-.23.079-.465.154-.703.233-.325.107-.655.214-.988.321-.457.146-.918.288-1.382.435-.568.174-1.139.348-1.723.522l-.087.023c-.671.202-1.354.396-2.045.593-.345.095-.691.194-1.04.289a.475.475 0 0 0-.064.02c-.365.099-.73.198-1.099.3-1.122.297-2.246.587-3.371.87-15.225 3.789-33.904 6.549-54.576 7.882-9.056.581-18.497.89-28.196.89a439.272 439.272 0 0 1-28.434-.906c-54.485-3.539-95.035-17.016-95.035-33.103a9.88 9.88 0 0 1 .444-2.887c.024.067.048.13.076.198 5.665 14.821 45.87 26.799 98.037 29.722 7.992.451 16.269.684 24.741.684 8.508 0 16.817-.237 24.841-.688 52.123-2.934 92.288-14.917 97.934-29.726a8.51 8.51 0 0 0 .25-.712 9.966 9.966 0 0 1 .615 3.409Z"/><path id="Vector_5" d="M36.893 84.445c-6.607 0-13.63-1.416-13.63-4.04 0-2.625 7.023-4.04 13.63-4.04 6.608 0 13.63 1.415 13.63 4.04 0 2.624-7.022 4.04-13.63 4.04Zm0-7.29c-7.564 0-12.835 1.713-12.835 3.25s5.271 3.25 12.835 3.25c7.565 0 12.836-1.713 12.836-3.25s-5.271-3.25-12.836-3.25Z"/><path id="Vector_6" d="M65.08 103.031c-6.606 0-13.629-1.416-13.629-4.04s7.023-4.04 13.63-4.04c6.607 0 13.63 1.416 13.63 4.04s-7.024 4.04-13.631 4.04Zm0-7.29c-7.563 0-12.835 1.713-12.835 3.25s5.272 3.249 12.836 3.249 12.835-1.712 12.835-3.249c0-1.537-5.271-3.25-12.836-3.25Z"/><path id="Vector_7" d="M211.577 84.445c-6.608 0-13.63-1.416-13.63-4.04 0-2.625 7.022-4.04 13.63-4.04 6.607 0 13.629 1.415 13.629 4.04 0 2.624-7.022 4.04-13.629 4.04Zm0-7.29c-7.565 0-12.836 1.713-12.836 3.25s5.271 3.25 12.836 3.25c7.564 0 12.835-1.713 12.835-3.25s-5.271-3.25-12.835-3.25Z"/><path id="Vector_8" d="M183.389 103.031c-6.607 0-13.629-1.416-13.629-4.04s7.022-4.04 13.629-4.04c6.607 0 13.63 1.416 13.63 4.04s-7.023 4.04-13.63 4.04Zm0-7.29c-7.564 0-12.835 1.713-12.835 3.25s5.271 3.249 12.835 3.249c7.564 0 12.836-1.712 12.836-3.249 0-1.537-5.272-3.25-12.836-3.25Z"/><path id="Vector_9" d="M124.235 111.731c-6.607 0-13.63-1.416-13.63-4.04s7.023-4.04 13.63-4.04c6.607 0 13.63 1.416 13.63 4.04s-7.023 4.04-13.63 4.04Zm0-7.289c-7.564 0-12.835 1.712-12.835 3.249 0 1.537 5.271 3.249 12.835 3.249 7.564 0 12.836-1.712 12.836-3.249 0-1.537-5.272-3.249-12.836-3.249Z"/></g></g><g id="et2"><path id="et2-core" fill="#005697" d="M134.283 194.846c9.211 0 16.679-7.438 16.679-16.614 0-9.175-7.468-16.614-16.679-16.614-9.212 0-16.679 7.439-16.679 16.614 0 9.176 7.467 16.614 16.679 16.614Z"/><path id="et2-leftleg" fill="#005697" d="m127.94 189.148-8.117 4.049 2.269 4.513 8.117-4.049-2.269-4.513Z"/><path id="et2-leftfeet" fill="#005697" d="M123.162 197.252c.481-.727-.707-2.353-2.654-3.632s-3.915-1.726-4.397-.999c-.481.728.707 2.354 2.654 3.632 1.947 1.279 3.915 1.726 4.397.999Z"/><path id="et2-rightleg" fill="#005697" d="m140.625 189.148-2.269 4.513 8.118 4.049 2.269-4.513-8.118-4.049Z"/><path id="et2-rightfeet" fill="#005697" d="M149.801 196.253c1.947-1.278 3.135-2.904 2.653-3.632-.481-.727-2.45-.28-4.397.999s-3.135 2.905-2.653 3.632c.481.727 2.45.28 4.397-.999Z"/><path id="et2-head" fill="#80A7C5" d="M147.44 160.158c.251-6.151-5.071-11.36-11.886-11.636-6.816-.276-12.545 4.487-12.795 10.637-.251 6.151 4.486 7.549 11.302 7.824 6.816.276 13.128-.674 13.379-6.825Z"/><path id="et2-rightarm" fill="#005697" d="M157.055 186.932c1.097-.938-.446-4.521-3.446-8.002-3-3.481-6.322-5.542-7.419-4.604-1.097.938.446 4.521 3.446 8.002 3 3.481 6.322 5.542 7.419 4.604Z"/><path id="et2-leftarm" fill="#005697" d="M118.976 182.328c3-3.481 4.543-7.064 3.446-8.002-1.097-.938-4.419 1.123-7.419 4.604s-4.543 7.064-3.446 8.002c1.098.938 4.419-1.123 7.419-4.604Z"/></g><g id="wind" fill="#CCC"><path id="wind-10" d="M106.104 195.905a.795.795 0 0 1-.734-.487.796.796 0 0 1-.06-.304v-46.663a.788.788 0 0 1 .491-.731.796.796 0 0 1 .864.171c.149.149.232.35.233.56v46.663a.796.796 0 0 1-.232.561.795.795 0 0 1-.562.23Z"/><path id="wind-9" d="M94.194 237.823a.795.795 0 0 1-.794-.791v-34.009a.787.787 0 0 1 .793-.79.797.797 0 0 1 .734.487.79.79 0 0 1 .061.303v34.009a.795.795 0 0 1-.794.791Z"/><path id="wind-8" d="M124.763 209.746a.8.8 0 0 1-.794-.791v-46.664a.788.788 0 0 1 .491-.731.805.805 0 0 1 .864.171.788.788 0 0 1 .233.56v46.664c0 .21-.083.411-.232.559a.798.798 0 0 1-.562.232Z"/><path id="wind-7" d="M113.25 243.359a.787.787 0 0 1-.561-.231.784.784 0 0 1-.233-.56v-18.981a.788.788 0 0 1 .491-.731.797.797 0 0 1 .865.171c.148.149.232.35.232.56v18.981c0 .21-.084.411-.232.56a.799.799 0 0 1-.562.231Z"/><path id="wind-6" d="M129.527 146.078a.796.796 0 0 1-.794-.791v-18.982a.796.796 0 0 1 1.528-.303c.04.096.06.199.06.303v18.982a.797.797 0 0 1-.794.791Z"/><path id="wind-5" d="M89.827 154.382a.79.79 0 0 1-.794-.791V134.61a.79.79 0 0 1 .794-.791.79.79 0 0 1 .794.791v18.981a.79.79 0 0 1-.794.791Z"/><path id="wind-4" d="M158.906 156.36a.792.792 0 0 1-.794-.791v-18.982a.796.796 0 0 1 .232-.561.795.795 0 0 1 .562-.23.795.795 0 0 1 .734.487c.04.097.06.2.06.304v18.982a.797.797 0 0 1-.794.791Z"/><path id="wind-3" d="M157.318 215.678a.796.796 0 0 1-.794-.791V191.95a.79.79 0 0 1 .794-.755.794.794 0 0 1 .794.755v22.937a.793.793 0 0 1-.794.791Z"/><path id="wind-2" d="M141.438 235.846a.798.798 0 0 1-.734-.488.787.787 0 0 1-.06-.303v-34.009a.79.79 0 0 1 .233-.561.79.79 0 0 1 1.122 0 .79.79 0 0 1 .233.561v34.009a.8.8 0 0 1-.794.791Z"/><path id="wind-1" d="M144.614 177.714a.793.793 0 0 1-.794-.791V130.26a.79.79 0 0 1 .233-.561.79.79 0 0 1 1.122 0 .79.79 0 0 1 .233.561v46.663a.796.796 0 0 1-.794.791Z"/></g><g id="et1"><path id="et1-rightarm" fill="#005697" d="M241.957 277.011c1.137-.948-.399-4.639-3.43-8.245-3.031-3.606-6.41-5.761-7.546-4.813-1.137.948.399 4.639 3.43 8.245 3.031 3.606 6.41 5.761 7.546 4.813Z"/><path id="et1-core" fill="#005697" d="M234.504 272.911c2.986-8.924-1.855-18.569-10.814-21.543-8.958-2.975-18.641 1.848-21.627 10.771-2.986 8.923 1.855 18.568 10.813 21.543 8.959 2.974 18.642-1.848 21.628-10.771Z"/><path id="et1-rightleg" fill="#005697" d="M225.52 280.891h-5.194v9.27h5.194v-9.27Z"/><path id="et1-leftleg" fill="#005697" d="M215.132 280.891h-5.195v9.27h5.195v-9.27Z"/><path id="et1-leftfeet" fill="#005697" d="M210.803 291.67c2.391 0 4.329-.724 4.329-1.617s-1.938-1.617-4.329-1.617-4.329.724-4.329 1.617 1.938 1.617 4.329 1.617Z"/><path id="et1-head" fill="#80A7C5" d="M212.915 246.116c1.526-6.124 8.266-9.728 15.052-8.05 6.787 1.679 11.05 8.004 9.524 14.129-1.527 6.124-6.592 6.144-13.379 4.465-6.786-1.678-12.724-4.419-11.197-10.544Z"/><path id="et1-leftarm" fill="#005697" d="M206.749 263.271c.636-1.334-2.308-4.049-6.574-6.064-4.266-2.015-8.239-2.568-8.874-1.234-.635 1.334 2.308 4.049 6.574 6.065 4.266 2.015 8.239 2.567 8.874 1.233Z"/><path id="et1-rightfeet" fill="#005697" d="M221.192 291.886c2.39 0 4.328-.724 4.328-1.617s-1.938-1.617-4.328-1.617c-2.391 0-4.329.724-4.329 1.617s1.938 1.617 4.329 1.617Z"/></g><path id="ground" fill="#3F3D56" d="M267.103 292h-93.694a.399.399 0 0 1-.363-.245.393.393 0 0 1 .083-.43.397.397 0 0 1 .28-.116h93.694a.398.398 0 0 1 .281.675.4.4 0 0 1-.281.116Z"/></g></svg>