<svg width="624" height="624" viewBox="0 0 624 624" fill="none" xmlns="http://www.w3.org/2000/svg">
<g id="undraw_drink_coffee_v3au 1" clip-path="url(#clip0_13_2)">
<path id="Vector" d="M311.82 623.63C304.71 623.63 297.62 623.39 290.76 622.93C283.67 622.46 276.57 621.74 269.64 620.79C266.59 620.38 263.83 619.97 261.2 619.54C253.39 618.27 245.44 616.66 237.58 614.74C234.89 614.09 232.25 613.41 229.75 612.71C228.87 612.48 227.97 612.23 227.08 611.98C223.28 610.91 219.6 609.8 216.16 608.68C215.94 608.62 215.68 608.53 215.42 608.45C212.31 607.45 209.07 606.34 205.8 605.15C203.04 604.15 200.24 603.09 197.24 601.91C190.99 599.45 184.73 596.73 178.63 593.84C176.09 592.65 173.44 591.34 170.52 589.86C170 589.6 169.47 589.33 168.95 589.06L168.35 588.75C134.07 570.95 103.68 547.2 78.04 518.17C27.72 461.19 0 387.9 0 311.81C0 228.52 32.44 150.21 91.33 91.32C150.22 32.43 228.53 0 311.82 0C395.11 0 473.42 32.43 532.32 91.32C591.22 150.21 623.65 228.52 623.65 311.81C623.65 360.75 612.63 407.6 590.91 451.06C570.19 492.5 539.86 529.49 503.18 558.02C494.56 564.74 485.48 571.06 476.2 576.82C466.79 582.68 456.92 588.11 446.86 592.95C444.62 594.03 442.22 595.15 439.3 596.46L439.02 596.58C438.66 596.74 438.3 596.9 437.94 597.05C435.76 598.02 433.54 598.97 431.35 599.87L430.36 600.29C429.74 600.55 429.16 600.79 428.58 601.01C421.15 604.01 413.66 606.71 406.32 609.02C405.74 609.22 405.15 609.4 404.55 609.58L404.03 609.74C397.93 611.63 391.51 613.39 384.98 614.96C361.19 620.7 336.57 623.61 311.82 623.61L311.82 623.63ZM311.82 2C229.06 2 151.26 34.22 92.74 92.74C34.23 151.25 2 229.05 2 311.81C2 387.42 29.54 460.23 79.55 516.84C105.03 545.68 135.22 569.28 169.28 586.96L169.88 587.27C170.39 587.54 170.91 587.8 171.43 588.06C174.34 589.54 176.97 590.84 179.49 592.02C185.55 594.89 191.77 597.59 197.98 600.03C200.96 601.21 203.74 602.26 206.48 603.25C209.73 604.43 212.95 605.53 216.05 606.53C216.29 606.61 216.52 606.68 216.75 606.75C220.2 607.87 223.84 608.97 227.62 610.04C228.49 610.29 229.38 610.54 230.26 610.77C232.76 611.46 235.37 612.14 238.04 612.79C245.86 614.7 253.75 616.31 261.52 617.56C264.13 617.99 266.87 618.4 269.9 618.81C276.78 619.75 283.84 620.47 290.88 620.93C297.7 621.39 304.74 621.63 311.8 621.63C336.4 621.63 360.85 618.74 384.5 613.04C390.99 611.48 397.36 609.73 403.44 607.85L403.96 607.69C404.54 607.51 405.11 607.34 405.69 607.14C413 604.84 420.45 602.16 427.84 599.17C428.42 598.94 428.98 598.71 429.54 598.48L430.77 597.97C432.88 597.1 435.02 596.18 437.14 595.24C437.51 595.08 437.85 594.93 438.2 594.77L438.48 594.65C441.38 593.34 443.77 592.23 445.99 591.16C455.99 586.35 465.8 580.96 475.15 575.13C484.37 569.41 493.39 563.12 501.96 556.45C538.4 528.09 568.54 491.34 589.13 450.17C610.71 407 621.66 360.45 621.66 311.82C621.66 229.06 589.43 151.26 530.91 92.75C472.39 34.22 394.58 2 311.82 2Z" fill="#DADBDC"/>
<path id="Vector_2" d="M273.97 426.13L349.74 444.28L340.95 338.1L274.03 343.64L273.97 426.13Z" fill="#F3A3A6"/>
<path id="Vector_3" d="M328.17 368.5C368.907 368.5 401.93 335.477 401.93 294.74C401.93 254.003 368.907 220.98 328.17 220.98C287.433 220.98 254.41 254.003 254.41 294.74C254.41 335.477 287.433 368.5 328.17 368.5Z" fill="#F3A3A6"/>
<path id="Vector_4" d="M406.02 608.08C405.43 608.28 404.85 608.46 404.26 608.64C404.09 608.69 403.92 608.75 403.75 608.8C397.5 610.74 391.16 612.47 384.75 614.01C361.36 619.65 336.93 622.63 311.82 622.63C304.76 622.63 297.76 622.4 290.83 621.93C283.74 621.46 276.72 620.75 269.78 619.8C266.96 619.42 264.16 619.01 261.37 618.55C253.42 617.26 245.56 615.65 237.82 613.76C235.21 613.13 232.61 612.46 230.02 611.74C229.13 611.51 228.24 611.26 227.36 611.01C223.71 609.98 220.08 608.89 216.48 607.72C216.24 607.65 215.99 607.57 215.75 607.49C212.53 606.45 209.33 605.35 206.15 604.2C203.29 603.17 200.45 602.09 197.62 600.97C191.33 598.49 185.15 595.81 179.07 592.93L181.41 582.33L189.52 545.61L207.13 465.83L224.93 385.21L271.7 386.51H271.72L274 386.58L345.13 388.56L376.25 389.43L406.02 608.08Z" fill="#DADBDC"/>
<path id="Vector_5" d="M475.68 575.97C466.26 581.84 456.49 587.21 446.43 592.05C443.94 593.25 441.42 594.41 438.89 595.55C438.44 595.75 438 595.95 437.55 596.14C435.37 597.11 433.18 598.05 430.97 598.96L429.98 599.38C429.4 599.62 428.82 599.86 428.23 600.09C420.96 603.03 413.56 605.71 406.03 608.08C405.44 608.28 404.86 608.46 404.27 608.64L339.03 441.71L334.62 430.44L322.32 398.95L318.24 388.52L345.17 388.94L376.26 389.43C404.48 393.04 427.88 413.01 435.89 440.3L475.69 575.97L475.68 575.97Z" fill="#DADBDC"/>
<path id="hair" d="M276.43 328.44C279.05 328 281.67 327.55 284.29 327.11C284.91 313.1 286.26 297.47 296.75 288.16C302.53 283.03 310.89 280.04 313.76 272.86C316.14 266.91 313.92 259.6 317.24 254.12C320.73 248.35 328.53 247.32 335.27 246.9C345.82 246.25 356.56 245.61 366.83 248.11C377.1 250.62 387.01 256.8 391.39 266.42C392.74 269.38 393.52 272.57 394.3 275.73C396.93 286.42 400.96 306.76 400.96 306.76C400.96 306.76 401.74 302.55 403.96 294.36C408.49 287.88 414.02 281.9 416.68 274.46C419.88 265.5 418.47 255.49 415.33 246.52C408.2 226.11 391.66 208.86 371.06 202.3C350.45 195.75 330.96 192.04 315.56 207.22C312.67 210.07 310.07 213.25 306.77 215.61C300.67 219.98 292.88 221.08 286 224.1C270.69 230.82 256.85 246.98 253.4 263.34C249.95 279.7 251.75 296.65 253.57 313.28C255.14 327.62 261.95 343.61 273.89 351.71C274.38 344.37 274.87 337.04 275.36 329.7L276.42 328.45H276.43V328.44Z" fill="#2F2E43"/>
<path id="Vector_6" d="M317.26 397.4L316.54 398.58L296.4 431.5L266.54 480.34L260.49 490.23L238.43 526.31C238.43 526.31 231.27 536.38 219.19 549.29L219.15 549.33C214.76 554.01 209.73 559.06 204.16 564.13C204.12 564.18 204.08 564.22 204.03 564.25C197.23 570.45 189.63 576.68 181.41 582.33C178.03 584.66 174.55 586.88 170.99 588.96C170.26 588.6 169.54 588.22 168.82 587.85C134.6 570.08 104.1 546.14 78.8 517.5C105.21 475.32 157.47 428.02 191.14 399.85C210.19 383.9 235.64 377.89 259.8 383.67L271.7 386.51L274 387.06L317.26 397.4Z" fill="#DADBDC"/>
<path id="coffe-cup" d="M411.22 387.25C398.25 382.58 363.92 382.56 348.52 387.76C345.53 388.77 343.72 391.81 344.24 394.92L344.85 398.61C343.51 398.41 342.2 398.03 340.96 397.46C337.29 395.78 330.06 393.5 322.76 397.14C317.66 399.68 314.07 404.47 312.81 410.04C309.8 423.36 317.39 430.73 317.39 430.73L327.5 440.22C335.97 448.16 345.21 455.24 355.08 461.34L355.28 461.46L351.68 439.8C349.65 443.37 345.06 444.54 341.57 442.38C332.75 436.92 318.34 425.98 320.09 413.56C321.31 404.9 326.12 403.06 330.74 403.45C335.91 403.89 340.42 407.14 342.63 411.83C343.16 412.95 344.03 413.87 345.11 414.47L347.71 415.89L355.33 461.8C355.67 463.86 356.99 465.64 358.86 466.56C376.78 475.35 396.12 470.79 402.81 468.74C404.34 468.27 405.65 467.26 406.47 465.88L407.91 463.49C408.41 462.67 408.71 461.74 408.81 460.79L415.46 393.97C415.75 391.02 414 388.26 411.21 387.25L411.22 387.25Z" fill="#6C63FF"/>
<path id="Vector_7" d="M380.17 393.64C396.81 393.64 410.3 392.368 410.3 390.8C410.3 389.231 396.81 387.96 380.17 387.96C363.53 387.96 350.04 389.231 350.04 390.8C350.04 392.368 363.53 393.64 380.17 393.64Z" fill="#DEDFE0"/>
<path id="hand" d="M319.98 447.72C336.33 435.21 342.8 416.4 334.43 405.71C326.07 395.02 306.04 396.49 289.68 409.01C283.08 413.92 277.8 420.38 274.31 427.85L205.75 481.74L232.97 514.3L297.67 457.71C305.86 456.24 313.51 452.81 319.97 447.72H319.98Z" fill="#F3A3A6"/>
<path id="Vector_8" d="M274.62 494.54L247.5 446.84L148.81 493.28L204.03 564.26L274.62 494.54Z" fill="#DADBDC"/>
<path id="Vector_9" opacity="0.1" d="M215.47 461.91C215.47 461.91 143.53 514.58 146.19 514.29C148.85 514 184.32 494.49 184.32 494.49L215.47 461.91Z" fill="#272223"/>
</g>
<defs>
<clipPath id="clip0_13_2">
<rect width="623.65" height="623.63" fill="white"/>
</clipPath>
</defs>
</svg>
