<svg width="156" height="157" viewBox="0 0 156 157" fill="none" xmlns="http://www.w3.org/2000/svg">
<path d="M78 156.5C120.802 156.5 155.5 121.578 155.5 78.5C155.5 35.4218 120.802 0.5 78 0.5C35.1979 0.5 0.5 35.4218 0.5 78.5C0.5 121.578 35.1979 156.5 78 156.5Z" fill="#FF0000"/>
<path d="M105.418 101.494C105.675 101.752 105.88 102.058 106.019 102.394C106.159 102.731 106.23 103.092 106.23 103.456C106.23 103.82 106.159 104.181 106.019 104.518C105.88 104.854 105.675 105.16 105.418 105.418C105.16 105.675 104.854 105.88 104.518 106.019C104.181 106.159 103.82 106.23 103.456 106.23C103.092 106.23 102.731 106.159 102.394 106.019C102.058 105.88 101.752 105.675 101.494 105.418L78.5015 82.4215L55.5087 105.418C54.9884 105.938 54.2828 106.23 53.547 106.23C52.8112 106.23 52.1055 105.938 51.5853 105.418C51.065 104.897 50.7727 104.192 50.7727 103.456C50.7727 102.72 51.065 102.015 51.5853 101.494L74.5816 78.5015L51.5853 55.5087C51.065 54.9884 50.7727 54.2828 50.7727 53.547C50.7727 52.8112 51.065 52.1055 51.5853 51.5853C52.1055 51.065 52.8112 50.7727 53.547 50.7727C54.2828 50.7727 54.9884 51.065 55.5087 51.5853L78.5015 74.5816L101.494 51.5853C102.015 51.065 102.72 50.7727 103.456 50.7727C104.192 50.7727 104.897 51.065 105.418 51.5853C105.938 52.1055 106.23 52.8112 106.23 53.547C106.23 54.2828 105.938 54.9884 105.418 55.5087L82.4215 78.5015L105.418 101.494Z" fill="white"/>
</svg>
