<svg width="286" height="267" viewBox="0 0 286 267" fill="none" xmlns="http://www.w3.org/2000/svg">
<g clip-path="url(#clip0_6294_4304)">
<path d="M62.7112 147.616C82.7102 147.616 98.9225 131.36 98.9225 111.308C98.9225 91.2556 82.7102 75 62.7112 75C42.7123 75 26.5 91.2556 26.5 111.308C26.5 131.36 42.7123 147.616 62.7112 147.616Z" fill="#005697"/>
<path d="M59.1229 125.159C58.3082 125.16 57.5152 124.896 56.8635 124.406L56.823 124.375L48.3129 117.848C47.9188 117.545 47.588 117.167 47.3395 116.736C47.091 116.305 46.9296 115.829 46.8646 115.335C46.7996 114.842 46.8321 114.34 46.9605 113.859C47.0888 113.378 47.3104 112.927 47.6125 112.532C47.9147 112.137 48.2915 111.805 48.7215 111.556C49.1515 111.307 49.6263 111.145 50.1186 111.08C50.611 111.014 51.1113 111.047 51.5911 111.176C52.0709 111.304 52.5207 111.526 52.9148 111.829L58.427 116.068L71.4526 99.0291C71.7546 98.6341 72.1313 98.3026 72.5611 98.0535C72.9909 97.8045 73.4654 97.6427 73.9576 97.5776C74.4498 97.5124 74.9499 97.545 75.4295 97.6737C75.909 97.8023 76.3587 98.0244 76.7526 98.3272L76.7537 98.328L76.6729 98.4406L76.7559 98.328C77.5507 98.9405 78.0708 99.8442 78.2019 100.841C78.333 101.837 78.0644 102.845 77.4552 103.643L62.1343 123.675C61.7798 124.137 61.3241 124.511 60.8024 124.767C60.2808 125.023 59.7072 125.156 59.1262 125.154L59.1229 125.159Z" fill="white"/>
<path d="M233.198 236.602C233.639 235.888 234.157 235.225 234.745 234.627C234.987 234.375 235.242 234.138 235.505 233.907C237.106 232.478 239.058 231.502 241.16 231.081C243.262 230.659 245.437 230.806 247.464 231.507C249.49 232.208 251.294 233.437 252.689 235.068C254.084 236.7 255.021 238.674 255.403 240.789C257.171 234.231 252.568 227.772 247.939 222.81C243.308 217.851 238.015 212.409 238.042 205.613C238.055 201.831 239.9 198.458 242.685 195.956C242.771 195.881 242.857 195.805 242.945 195.732C246.312 192.838 250.644 191.324 255.075 191.493C263.308 191.935 270.496 197.483 275.488 204.064C283.524 214.653 287.045 229.516 281.419 241.569C276.471 252.17 265.918 258.465 255.148 263.526C253.644 264.233 252.144 264.919 250.646 265.583C250.636 265.585 250.625 265.593 250.615 265.595C250.543 265.627 250.471 265.659 250.403 265.691C250.094 265.828 249.785 265.965 249.478 266.1L249.62 266.193L250.063 266.481C249.91 266.387 249.758 266.297 249.604 266.204C249.558 266.175 249.51 266.149 249.465 266.121C244.175 262.938 238.812 259.572 235.157 254.603C231.367 249.445 229.843 242.056 233.198 236.602Z" fill="#F1F1F1"/>
<path d="M268.49 224.622C269.661 227.294 270.438 230.123 270.795 233.019C271.076 235.602 270.97 238.212 270.482 240.764C269.431 246.007 267.14 250.92 263.802 255.091C261.283 258.257 258.375 261.091 255.148 263.526C253.644 264.233 252.143 264.919 250.645 265.583C250.635 265.586 250.624 265.593 250.614 265.595C250.542 265.627 250.47 265.659 250.403 265.692C250.093 265.828 249.784 265.965 249.478 266.1L249.62 266.193L250.063 266.481C249.909 266.388 249.757 266.297 249.604 266.204C249.558 266.176 249.51 266.149 249.464 266.121C250.628 262.038 250.799 257.735 249.963 253.572C249.127 249.409 247.308 245.508 244.658 242.195C241.995 238.925 238.598 236.331 234.744 234.627C234.986 234.375 235.241 234.138 235.505 233.907C236.989 234.59 238.41 235.404 239.751 236.338C244.549 239.663 248.151 244.448 250.025 249.985C251.698 255.008 251.907 260.406 250.628 265.544C250.893 265.37 251.159 265.191 251.419 265.014C256.347 261.682 260.888 257.68 264.309 252.773C267.26 248.625 269.148 243.814 269.807 238.763C270.463 233.245 269.086 227.819 266.629 222.895C263.916 217.628 260.497 212.757 256.468 208.419C252.421 203.961 247.845 200.016 242.842 196.672C242.729 196.596 242.65 196.479 242.621 196.346C242.591 196.212 242.614 196.073 242.685 195.956C242.738 195.85 242.832 195.77 242.944 195.732C243.002 195.717 243.061 195.716 243.119 195.728C243.177 195.739 243.232 195.764 243.279 195.8C243.896 196.213 244.509 196.63 245.113 197.059C250.152 200.636 254.727 204.827 258.735 209.535C262.607 214.073 266.132 219.115 268.49 224.622Z" fill="white"/>
<path d="M160.642 16.8591C164.89 16.8591 168.333 13.4068 168.333 9.14828C168.333 4.88973 164.89 1.4375 160.642 1.4375C156.395 1.4375 152.952 4.88973 152.952 9.14828C152.952 13.4068 156.395 16.8591 160.642 16.8591Z" fill="#F1F1F1"/>
<path d="M256.267 120.047C258.856 120.047 260.955 117.942 260.955 115.346C260.955 112.749 258.856 110.645 256.267 110.645C253.677 110.645 251.578 112.749 251.578 115.346C251.578 117.942 253.677 120.047 256.267 120.047Z" fill="#F1F1F1"/>
<path d="M119.048 132.945C121.637 132.945 123.737 130.84 123.737 128.244C123.737 125.648 121.637 123.543 119.048 123.543C116.459 123.543 114.359 125.648 114.359 128.244C114.359 130.84 116.459 132.945 119.048 132.945Z" fill="#F1F1F1"/>
<path d="M121.695 267H285.071C285.185 267 285.294 266.954 285.375 266.874C285.455 266.793 285.5 266.684 285.5 266.57C285.5 266.456 285.455 266.346 285.375 266.266C285.294 266.185 285.185 266.14 285.071 266.14H121.695C121.582 266.14 121.473 266.185 121.392 266.266C121.312 266.346 121.267 266.456 121.267 266.57C121.267 266.684 121.312 266.793 121.392 266.874C121.473 266.954 121.582 267 121.695 267Z" fill="#CBCBCB"/>
<path d="M267.042 41.5484C267.256 40.0213 266.904 38.4683 266.053 37.1837C265.202 35.8992 263.911 34.9723 262.423 34.5787C260.936 34.1851 259.357 34.3522 257.984 35.0483C256.612 35.7444 255.541 36.9211 254.976 38.3555L241.719 53.5949L245.609 64.4885L258.942 46.6819C259.812 46.9613 260.732 47.0461 261.639 46.9302C262.545 46.8144 263.415 46.5007 264.187 46.0112C264.959 45.5218 265.615 44.8685 266.108 44.0975C266.601 43.3264 266.92 42.4563 267.042 41.5484Z" fill="#FFB7B7"/>
<path d="M212.087 100.845L256.095 53.7524L250.159 44.29L194.962 91.0963L212.087 100.845Z" fill="#007EDD"/>
<path d="M202.265 72.2319C210.791 72.2319 217.702 65.3021 217.702 56.7537C217.702 48.2052 210.791 41.2754 202.265 41.2754C193.74 41.2754 186.828 48.2052 186.828 56.7537C186.828 65.3021 193.74 72.2319 202.265 72.2319Z" fill="#2F2E41"/>
<path d="M203.506 48.0101C206.828 44.6326 210.847 42.0262 215.282 40.3745C218.129 39.317 221.227 38.6637 224.204 39.2642C227.18 39.8647 229.994 41.9291 230.825 44.857C231.504 47.2511 230.803 49.8288 229.749 52.0825C228.695 54.3362 227.288 56.4261 226.436 58.7639C225.567 61.1493 225.306 63.7146 225.676 66.227C226.046 68.7394 227.036 71.1193 228.556 73.1507C230.077 75.1821 232.079 76.8006 234.381 77.8594C236.683 78.9181 239.213 79.3835 241.74 79.2134C238.816 79.6065 236.121 80.9844 233.262 81.7178C230.404 82.4512 227.031 82.4015 224.906 80.3483C222.659 78.176 222.614 74.6441 222.723 71.516C222.884 66.8661 223.046 62.2162 223.207 57.5663C223.29 55.1949 223.36 52.7475 222.507 50.5342C221.654 48.3208 219.627 46.3827 217.261 46.4029C215.467 46.4181 213.88 47.5075 212.442 48.5818C211.003 49.6562 209.481 50.8024 207.694 50.9622C205.908 51.122 203.868 49.7964 204.002 48.0031L203.506 48.0101Z" fill="#2F2E41"/>
<path d="M143.634 160.683C142.152 161.096 140.57 160.949 139.189 160.271C137.807 159.593 136.722 158.43 136.139 157.003C135.555 155.576 135.514 153.984 136.023 152.529C136.532 151.073 137.555 149.856 138.9 149.107L152.236 133.937L163.516 136.38L147.651 151.961C148.041 152.789 148.245 153.693 148.249 154.609C148.253 155.525 148.056 156.431 147.673 157.262C147.29 158.094 146.73 158.831 146.032 159.422C145.334 160.013 144.515 160.444 143.634 160.683Z" fill="#FFB7B7"/>
<path d="M187.51 106.372L154.271 148.206L144.139 143.542L183.207 82.5557L187.51 106.372Z" fill="#007EDD"/>
<path d="M160.988 232.695L153.066 232.57L154.019 259.643H160.987L160.988 232.695Z" fill="#FFB7B7"/>
<path d="M162.764 257.361L149.041 257.36H149.041C146.722 257.36 144.497 258.284 142.857 259.929C141.217 261.573 140.296 263.803 140.296 266.128V266.413L162.763 266.414L162.764 257.361Z" fill="#2F2E41"/>
<path d="M213.439 225.515L204.785 231.085L222.095 251.966L227.959 248.191L213.439 225.515Z" fill="#FFB7B7"/>
<path d="M228.225 245.309L216.678 252.742L216.677 252.742C214.726 253.999 213.352 255.981 212.858 258.253C212.364 260.525 212.79 262.901 214.043 264.858L214.197 265.098L233.103 252.927L228.225 245.309Z" fill="#2F2E41"/>
<path d="M216.522 142.847C216.522 142.847 197.294 78.8157 191.115 77.9504C184.936 77.0851 174.98 94.3801 174.98 94.3801C162.071 110.894 148.761 164.385 148.761 164.385C148.761 164.385 170.95 165.777 187.171 174.43C203.391 183.083 222.533 173.992 222.533 173.992L216.522 142.847Z" fill="#005697"/>
<path opacity="0.1" d="M216.522 142.847C216.522 142.847 197.294 78.8153 191.115 77.9501C184.936 77.0848 177.508 94.5553 177.508 94.5553C171.076 121.212 148.761 164.385 148.761 164.385C148.761 164.385 170.95 165.777 187.171 174.43C203.391 183.083 222.533 173.992 222.533 173.992L216.522 142.847Z" fill="#005697"/>
<path d="M200.747 123.689V155.865L204.523 202.473L223.391 237.729L214.386 244.179L188.657 210.642L178.481 177.343L162.5 251.058L150.493 250.198L158.832 147.994L174.655 119.226L200.747 123.689Z" fill="#1E1E1E"/>
<path d="M181.36 92.5686C175.357 98.5879 180.931 105.037 180.931 105.037L174.07 120.515L201.085 127.825L210.526 85.5267L204.094 78.6475C191.23 78.2175 191.223 77.9502 191.223 77.9502C188.969 80.1618 181.36 92.5686 181.36 92.5686Z" fill="#ABC6DB"/>
<path d="M211.614 81.1449C210.387 80.2368 208.993 79.5818 207.511 79.2179C206.03 78.854 204.492 78.7883 202.985 79.0248C201.478 79.2612 200.033 79.7951 198.734 80.5954C197.435 81.3958 196.306 82.4466 195.415 83.6872C188.623 93.1686 182.344 108.479 190.996 127.573C204.889 158.233 216.979 173.928 221.894 173.927C222.109 173.928 222.322 173.895 222.526 173.827C225.551 172.798 229.925 167.665 230.717 163.142C231 161.523 230.933 159.267 229.002 157.719C223.455 153.271 213.497 139.42 210.391 121.189C208.674 111.115 212.003 101.939 215.098 96.015C216.406 93.5639 216.788 90.7224 216.176 88.0116C215.563 85.3007 213.997 82.902 211.763 81.2551L211.614 81.1449Z" fill="#007EDD"/>
<path d="M203.059 70.7115C208.565 67.6932 210.589 60.7704 207.579 55.2489C204.569 49.7274 197.664 47.6982 192.157 50.7165C186.651 53.7348 184.627 60.6577 187.637 66.1792C190.647 71.7006 197.552 73.7298 203.059 70.7115Z" fill="#FFB7B7"/>
<path d="M181.627 59.8523H198.036L198.204 57.4903L199.045 59.8523H201.572L201.905 55.1708L203.573 59.8523H208.461V59.6204C208.458 56.3612 207.165 53.2365 204.866 50.9318C202.568 48.6272 199.452 47.3308 196.201 47.3271H193.888C190.637 47.3308 187.521 48.6272 185.222 50.9318C182.924 53.2364 181.631 56.3612 181.627 59.6204V59.8523Z" fill="#2F2E41"/>
<path d="M205.983 68.3428L212.985 66.0646V49.0146H199.759L200.086 49.3425C204.642 53.9046 209.709 70.0907 205.983 68.3428Z" fill="#2F2E41"/>
</g>
<defs>
<clipPath id="clip0_6294_4304">
<rect width="285" height="267" fill="white" transform="translate(0.5)"/>
</clipPath>
</defs>
</svg>
