<svg width="26" height="26" viewBox="0 0 26 26" fill="none" xmlns="http://www.w3.org/2000/svg">
<path d="M25.5 13C25.5 19.9036 19.9036 25.5 13 25.5C6.09644 25.5 0.5 19.9036 0.5 13C0.5 6.09644 6.09644 0.5 13 0.5C19.9036 0.5 25.5 6.09644 25.5 13Z" fill="white" stroke="#005697"/>
<path d="M19.1895 10.3983C19.1895 10.6978 18.9443 10.9405 18.6417 10.9405H12.4512V14.0388C12.4512 14.2277 12.4366 14.4156 12.4081 14.6008H13.5901C13.5615 14.4156 13.5469 14.2277 13.5469 14.0388V12.5673C13.5469 12.2678 13.7922 12.0251 14.0947 12.0251C14.3973 12.0251 14.6425 12.2678 14.6425 12.5673V14.0388C14.6425 14.6592 14.8636 15.2634 15.2648 15.74L18.0765 19.0797C18.2702 19.3097 18.2388 19.6517 18.0063 19.8434C17.9039 19.9279 17.7795 19.9691 17.6559 19.9691C17.4989 19.9691 17.3431 19.9026 17.2347 19.7739L14.6699 16.7275V19.4268C14.6699 19.7263 14.4247 19.9691 14.1221 19.9691C13.8196 19.9691 13.5743 19.7263 13.5743 19.4268V15.6853H12.4512V19.4268C12.4512 19.7263 12.206 19.9691 11.9034 19.9691C11.6008 19.9691 11.3556 19.7263 11.3556 19.4268V16.695L8.76336 19.7739C8.65503 19.9026 8.49917 19.9691 8.34224 19.9691C8.21857 19.9691 8.09424 19.9279 7.99182 19.8434C7.75941 19.6517 7.72799 19.3097 7.92168 19.0797L10.7333 15.74C11.1346 15.2634 11.3556 14.6592 11.3556 14.0388V10.9405H7.35642C7.05386 10.9405 6.80859 10.6978 6.80859 10.3983C6.80859 10.0988 7.05386 9.85605 7.35642 9.85605H10.2161L7.8521 8.12277C7.60897 7.94451 7.55786 7.60492 7.73796 7.36427C7.91806 7.12359 8.26114 7.07305 8.50426 7.25129L12.0568 9.85605H13.9413L17.4939 7.25132C17.737 7.07305 18.0801 7.12362 18.2602 7.3643C18.4403 7.60492 18.3892 7.94454 18.1461 8.1228L15.7821 9.85605H18.6417C18.9443 9.85605 19.1895 10.0988 19.1895 10.3983ZM11.3556 7.71416C11.3556 6.81717 12.0929 6.0874 12.9991 6.0874C13.9053 6.0874 14.6425 6.81717 14.6425 7.71416C14.6425 8.61115 13.9053 9.34092 12.9991 9.34092C12.0929 9.34092 11.3556 8.61115 11.3556 7.71416ZM12.4512 7.71416C12.4512 8.01316 12.697 8.25641 12.9991 8.25641C13.3011 8.25641 13.5469 8.01316 13.5469 7.71416C13.5469 7.41516 13.3011 7.17191 12.9991 7.17191C12.697 7.17191 12.4512 7.41516 12.4512 7.71416Z" fill="#005697"/>
</svg>
