<svg width="34" height="34" viewBox="0 0 34 34" fill="none" xmlns="http://www.w3.org/2000/svg">
<path d="M11.3244 8.5515L11.4224 8.64853L11.3243 8.55163L11.3244 8.5515ZM11.3244 8.5515C12.0241 7.85463 13.1624 7.85288 13.865 8.54865L13.7699 8.64503L11.3244 8.5515ZM7.64349 12.6307L7.64348 12.6293C7.64349 12.0805 7.84739 11.5274 8.26871 11.1045L8.17198 11.0079L8.26894 11.1042C8.27027 11.1029 8.27159 11.1016 8.27292 11.1003L8.52958 11.3574L7.64349 12.6307ZM7.64349 12.6307L7.50586 12.6311H7.64349L7.64349 12.6307ZM10.4398 9.83189C10.4398 9.83202 10.4398 9.83214 10.4398 9.83227C10.4398 9.83214 10.4398 9.83202 10.4398 9.83189ZM23.1386 20.2479L23.2397 20.3488L23.1387 20.2478L23.1386 20.2479ZM8.00586 12.6299C8.00586 12.6297 8.00586 12.6295 8.00586 12.6293C8.0063 12.1684 8.17965 11.7097 8.52618 11.3608C8.52633 11.3606 8.52648 11.3605 8.52663 11.3603L8.00586 12.6299ZM22.807 25.4961L22.8992 25.5884L22.8994 25.5881L22.807 25.4961Z" fill="#1E1E1E" stroke="#005697"/>
<path d="M33.5 16.9999C33.5 26.0907 26.1137 33.4622 17 33.4622C7.88625 33.4622 0.5 26.0907 0.5 16.9999C0.5 7.90907 7.88625 0.537598 17 0.537598C26.1137 0.537598 33.5 7.90907 33.5 16.9999Z" stroke="#005697"/>
</svg>
