<svg width="50" height="50" viewBox="0 0 50 50" fill="none" xmlns="http://www.w3.org/2000/svg">
<path d="M25 49C38.2548 49 49 38.2548 49 25C49 11.7452 38.2548 1 25 1C11.7452 1 1 11.7452 1 25C1 38.2548 11.7452 49 25 49Z" stroke="#005697"/>
<path d="M16.0383 11.9742C15.403 12.6085 15.0685 13.4611 15.0711 14.3291C15.0711 14.6038 15.1099 14.8838 15.18 15.1585C14.0468 14.8709 12.8151 15.1868 11.9698 16.0265C11.3215 16.6736 11 17.5236 11 18.3711C11.0026 19.2159 11.3319 20.0634 11.9828 20.7079C13.1807 21.8892 15.0529 21.9714 16.3572 20.9904L28.8919 33.2807H28.8945C28.4407 33.8714 28.2203 34.5801 28.2229 35.2838C28.2229 36.1286 28.547 36.9683 29.2005 37.6052C30.5099 38.8943 32.6284 38.8892 33.9301 37.5924C34.5654 36.9581 34.9025 36.1055 34.8999 35.2427C34.8999 34.9653 34.861 34.6828 34.791 34.4132C35.9242 34.6983 37.1585 34.3798 37.9986 33.5452C38.6495 32.8955 38.971 32.0481 38.9684 31.2007C38.9658 30.3507 38.6417 29.5032 37.9856 28.8587C36.7903 27.6825 34.9181 27.6004 33.6112 28.5788L21.0765 16.2859C21.5277 15.6978 21.7481 14.989 21.7455 14.2854C21.7429 13.438 21.4214 12.6008 20.7705 11.9614C19.4611 10.6748 17.34 10.68 16.0383 11.9742ZM20.1197 12.6137C20.5968 13.081 20.8457 13.6973 20.8328 14.306C20.8016 15.6054 19.7852 16.214 19.7281 16.2576L33.5982 29.8551C33.6657 29.7729 33.829 29.5957 33.9068 29.5186C34.8507 28.5813 36.3857 28.5762 37.3322 29.5109C37.8041 29.9809 38.0427 30.5921 38.0453 31.2058C38.0479 31.817 37.8119 32.4359 37.3426 32.9032C36.6321 33.6043 35.5456 33.8046 34.6329 33.3989L33.7694 34.2822C33.912 34.5904 33.9742 34.9165 33.9768 35.2478C33.9794 35.8718 33.7409 36.4933 33.2767 36.9529C32.338 37.8877 30.7978 37.8928 29.8539 36.9606C29.3768 36.4933 29.1279 35.877 29.1408 35.2683C29.1693 33.9689 30.1858 33.3552 30.2455 33.3141L16.3753 19.7141C16.3079 19.7963 16.1472 19.9786 16.0642 20.0505C15.1255 20.9904 13.5852 20.993 12.6388 20.0608C12.1669 19.5934 11.9309 18.9822 11.9283 18.3685C11.9283 17.7522 12.1591 17.1384 12.631 16.6711C13.3415 15.9674 14.4254 15.7697 15.3433 16.1754L16.2068 15.2921C16.0694 14.9839 15.9994 14.6526 15.9994 14.3265C15.9968 13.6974 16.2405 13.081 16.7021 12.6188C17.6356 11.6815 19.1706 11.6764 20.1197 12.6137Z" fill="#005697"/>
</svg>
