<svg width="50" height="50" viewBox="0 0 50 50" fill="none" xmlns="http://www.w3.org/2000/svg">
<path d="M25 49C38.2548 49 49 38.2548 49 25C49 11.7452 38.2548 1 25 1C11.7452 1 1 11.7452 1 25C1 38.2548 11.7452 49 25 49Z" stroke="#005697"/>
<path d="M14.1 29.106C13.9682 29.4046 13.8238 29.7464 13.7023 30.035C12.9249 31.8831 12.1208 33.794 9.06809 37.241C8.96899 37.3525 8.97924 37.5234 9.09116 37.6225C9.1427 37.6682 9.20673 37.6905 9.27036 37.6905C9.34529 37.6905 9.4195 37.6597 9.47295 37.5994C10.3069 36.6577 10.9752 35.829 11.5237 35.0827C13.2645 35.6811 13.802 37.1819 13.8955 37.4922C13.1551 38.0378 12.3333 38.7012 11.4006 39.527C11.289 39.6262 11.2785 39.7971 11.3776 39.9089C11.431 39.9692 11.5056 40 11.5802 40C11.6438 40 11.7079 39.9776 11.7594 39.9322C15.2061 36.8792 17.1169 36.0754 18.9653 35.2977C19.2539 35.1765 19.5954 35.0317 19.894 34.9C23.033 33.5142 26.0409 32.1866 28.627 30.0672C31.4976 27.7149 33.6129 24.6062 35.2832 20.2846C36.6525 16.7416 37.7163 14.2156 39.9391 11.4921C40.0336 11.3766 40.0162 11.2064 39.9006 11.1119C39.785 11.0174 39.6144 11.0345 39.52 11.1501C38.8641 11.9539 38.308 12.739 37.8148 13.5354C36.1628 12.9587 35.6029 11.5671 35.4762 11.178C36.2688 10.6865 37.0502 10.1325 37.8496 9.48007C37.9655 9.38557 37.9826 9.21504 37.8881 9.09938C37.7936 8.98381 37.6234 8.96647 37.5079 9.06088C34.7846 11.2837 32.2585 12.3475 28.7156 13.7168C24.394 15.3872 21.2854 17.5022 18.9328 20.3731C16.8136 22.959 15.4857 25.967 14.1 29.106ZM14.5949 29.3245C17.4301 22.9018 19.6883 17.7858 28.9104 14.2216C31.2664 13.3109 33.1798 12.5329 35.0033 11.4634C35.0838 11.681 35.2307 12.015 35.4756 12.3797C33.9227 13.2456 32.2387 13.9491 29.8649 14.8663C29.7257 14.9204 29.6564 15.077 29.7102 15.2162C29.7516 15.3234 29.8541 15.3893 29.9625 15.3893C29.9951 15.3893 30.0281 15.3833 30.0601 15.3709C32.4411 14.4506 34.2332 13.6894 35.8078 12.8141C36.0216 13.0605 36.2829 13.3047 36.6008 13.5238L34.4542 16.5289C34.3675 16.6504 34.3954 16.8194 34.5169 16.9061C34.5648 16.9403 34.6194 16.9565 34.6742 16.9565C34.7584 16.9565 34.8416 16.9173 34.8945 16.8434L37.0666 13.8022C37.212 13.8768 37.3656 13.9464 37.5299 14.0084C36.4642 15.8286 35.6874 17.7385 34.7789 20.0896C31.2142 29.3117 26.0981 31.5699 19.6756 34.4052C19.3814 34.535 19.042 34.6786 18.7555 34.7991C17.4739 35.3382 16.1624 35.8907 14.3544 37.1617C14.2385 36.8483 13.9853 36.2923 13.4985 35.7517C14.7413 34.1544 15.2844 33.1113 15.8094 32.1021C15.9869 31.761 16.1705 31.408 16.3787 31.0386C19.8238 24.926 22.8746 20.3298 30.7935 16.8408C30.9302 16.7808 30.9923 16.6211 30.932 16.4844C30.8717 16.3477 30.7123 16.2858 30.5757 16.3458C26.7372 18.037 23.8138 20.0622 21.3754 22.7191C19.1498 25.1441 17.5823 27.8013 15.9074 30.7728C15.6948 31.1503 15.509 31.507 15.3294 31.8522C14.7975 32.8747 14.2942 33.8423 13.1088 35.3719C12.7742 35.0842 12.3607 34.821 11.852 34.6262C13.1132 32.8282 13.6638 31.5213 14.2007 30.2446C14.3215 29.9582 14.4651 29.619 14.5949 29.3245Z" fill="#005697"/>
<path d="M28.0033 15.6487C24.2419 17.367 21.5033 19.5201 19.3847 22.425C19.2967 22.5455 19.3231 22.7145 19.444 22.8028C19.4922 22.8376 19.5478 22.8547 19.6031 22.8547C19.6866 22.8547 19.769 22.8162 19.8219 22.7435C21.8834 19.917 24.5545 17.8188 28.2279 16.1406C28.3637 16.0785 28.4237 15.9181 28.3615 15.7823C28.2994 15.6466 28.1391 15.5866 28.0033 15.6487Z" fill="#005697"/>
<path d="M29.4934 25.4838C29.3728 25.3959 29.2035 25.4223 29.1156 25.5431C27.054 28.3696 24.3829 30.4678 20.7094 32.146C20.5737 32.2081 20.5137 32.3685 20.5758 32.5043C20.6211 32.6037 20.7194 32.6624 20.8219 32.6624C20.8594 32.6624 20.8977 32.6546 20.9344 32.6378C24.6954 30.9199 27.434 28.7667 29.5524 25.8619C29.6407 25.7411 29.6143 25.5718 29.4934 25.4838Z" fill="#005697"/>
</svg>
