<svg width="34" height="34" viewBox="0 0 34 34" fill="none" xmlns="http://www.w3.org/2000/svg">
<path d="M26.1467 7.13458C26.0861 7.11784 26.03 7.08286 25.9872 7.0307L26.2309 6.83106L26.2309 6.83101L26.2313 6.83067L26.2314 6.83061L26.374 6.71379L26.2314 6.83056L26.2313 6.83062L26.2309 6.83096L26.2308 6.83101L25.9871 7.03057C25.9426 6.97618 25.9192 6.91137 25.916 6.84615C25.5104 7.16605 25.1097 7.44976 24.7054 7.70777L26.1467 7.13458Z" fill="#1E1E1E" stroke="#005697"/>
<mask id="path-2-inside-1_4289_317" fill="white">
<path d="M19.6156 11.1818C17.0439 12.3539 15.1715 13.8228 13.723 15.8044C13.6629 15.8866 13.6809 16.0019 13.7636 16.0621C13.7965 16.0859 13.8345 16.0975 13.8723 16.0975C13.9294 16.0975 13.9858 16.0713 14.0219 16.0217C15.4314 14.0935 17.2576 12.6621 19.7691 11.5173C19.862 11.4749 19.903 11.3656 19.8605 11.2729C19.818 11.1803 19.7084 11.1394 19.6156 11.1818Z"/>
</mask>
<path d="M19.6156 11.1818C17.0439 12.3539 15.1715 13.8228 13.723 15.8044C13.6629 15.8866 13.6809 16.0019 13.7636 16.0621C13.7965 16.0859 13.8345 16.0975 13.8723 16.0975C13.9294 16.0975 13.9858 16.0713 14.0219 16.0217C15.4314 14.0935 17.2576 12.6621 19.7691 11.5173C19.862 11.4749 19.903 11.3656 19.8605 11.2729C19.818 11.1803 19.7084 11.1394 19.6156 11.1818Z" fill="#1E1E1E"/>
<path d="M19.6156 11.1818L20.0303 12.0917L20.0308 12.0915L19.6156 11.1818ZM13.723 15.8044L14.5301 16.3949L14.5303 16.3945L13.723 15.8044ZM13.7636 16.0621L13.1747 16.8704L13.1789 16.8734L13.7636 16.0621ZM14.0219 16.0217L13.2146 15.4315L13.2135 15.4331L14.0219 16.0217ZM19.7691 11.5173L20.1839 12.4273L20.1844 12.427L19.7691 11.5173ZM19.2008 10.2718C16.4969 11.5043 14.4799 13.0744 12.9157 15.2143L14.5303 16.3945C15.8631 14.5712 17.5909 13.2036 20.0303 12.0917L19.2008 10.2718ZM12.916 15.2139C12.528 15.7442 12.6468 16.4857 13.1747 16.8704L14.3525 15.2539C14.715 15.5181 14.7978 16.029 14.5301 16.3949L12.916 15.2139ZM13.1789 16.8734C13.3844 17.0215 13.6276 17.0975 13.8723 17.0975V15.0975C14.0414 15.0975 14.2085 15.1502 14.3483 15.2509L13.1789 16.8734ZM13.8723 17.0975C14.2336 17.0975 14.597 16.9307 14.8303 16.6103L13.2135 15.4331C13.3745 15.2118 13.6252 15.0975 13.8723 15.0975V17.0975ZM14.8292 16.6118C16.1226 14.8424 17.804 13.5121 20.1839 12.4273L19.3544 10.6074C16.7113 11.8122 14.7401 13.3446 13.2146 15.4315L14.8292 16.6118ZM20.1844 12.427C20.7773 12.1564 21.0438 11.4543 20.7695 10.8561L18.9515 11.6897C18.7621 11.2768 18.9466 10.7935 19.3538 10.6076L20.1844 12.427ZM20.7695 10.8561C20.4973 10.2625 19.7954 10.0004 19.2003 10.2721L20.0308 12.0915C19.6214 12.2784 19.1388 12.0981 18.9515 11.6897L20.7695 10.8561Z" fill="#005697" mask="url(#path-2-inside-1_4289_317)"/>
<mask id="path-4-inside-2_4289_317" fill="white">
<path d="M20.6333 17.8909C20.5508 17.8309 20.4351 17.8489 20.375 17.9313C18.9655 19.8595 17.1392 21.2909 14.6277 22.4357C14.5348 22.4781 14.4938 22.5874 14.5363 22.6801C14.5673 22.7479 14.6345 22.7879 14.7046 22.7879C14.7302 22.7879 14.7564 22.7826 14.7815 22.7712C17.3529 21.5992 19.2253 20.1304 20.6736 18.1488C20.734 18.0664 20.7159 17.9509 20.6333 17.8909Z"/>
</mask>
<path d="M20.6333 17.8909C20.5508 17.8309 20.4351 17.8489 20.375 17.9313C18.9655 19.8595 17.1392 21.2909 14.6277 22.4357C14.5348 22.4781 14.4938 22.5874 14.5363 22.6801C14.5673 22.7479 14.6345 22.7879 14.7046 22.7879C14.7302 22.7879 14.7564 22.7826 14.7815 22.7712C17.3529 21.5992 19.2253 20.1304 20.6736 18.1488C20.734 18.0664 20.7159 17.9509 20.6333 17.8909Z" fill="#1E1E1E"/>
<path d="M20.6333 17.8909L20.0451 18.6996L20.0458 18.7001L20.6333 17.8909ZM20.375 17.9313L21.1823 18.5215L21.183 18.5205L20.375 17.9313ZM14.6277 22.4357L14.2129 21.5257L14.2124 21.526L14.6277 22.4357ZM14.5363 22.6801L15.4458 22.2644L15.4453 22.2633L14.5363 22.6801ZM14.7815 22.7712L14.3667 21.8612L14.366 21.8615L14.7815 22.7712ZM20.6736 18.1488L19.867 17.5577L19.8663 17.5587L20.6736 18.1488ZM21.2214 17.0821C20.6941 16.6986 19.9531 16.8125 19.5669 17.3422L21.183 18.5205C20.917 18.8853 20.4075 18.9632 20.0451 18.6996L21.2214 17.0821ZM19.5677 17.3412C18.2742 19.1106 16.5929 20.4409 14.2129 21.5257L15.0424 23.3456C17.6856 22.1408 19.6567 20.6084 21.1823 18.5215L19.5677 17.3412ZM14.2124 21.526C13.6195 21.7966 13.353 22.4987 13.6273 23.0969L15.4453 22.2633C15.6346 22.6762 15.4502 23.1595 15.0429 23.3454L14.2124 21.526ZM13.6268 23.0957C13.8271 23.534 14.2591 23.7879 14.7046 23.7879V21.7879C15.0098 21.7879 15.3075 21.9618 15.4458 22.2644L13.6268 23.0957ZM14.7046 23.7879C14.8694 23.7879 15.0376 23.7535 15.1969 23.6808L14.366 21.8615C14.4752 21.8117 14.5911 21.7879 14.7046 21.7879V23.7879ZM15.1962 23.6811C17.8999 22.4489 19.9169 20.8788 21.481 18.7388L19.8663 17.5587C18.5336 19.382 16.8059 20.7496 14.3667 21.8612L15.1962 23.6811ZM21.4802 18.7399C21.868 18.2107 21.7518 17.4672 21.2208 17.0816L20.0458 18.7001C19.68 18.4346 19.6 17.9221 19.867 17.5577L21.4802 18.7399Z" fill="#005697" mask="url(#path-4-inside-2_4289_317)"/>
<path d="M33.5 16.9999C33.5 26.0907 26.1137 33.4622 17 33.4622C7.88625 33.4622 0.5 26.0907 0.5 16.9999C0.5 7.90907 7.88625 0.537598 17 0.537598C26.1137 0.537598 33.5 7.90907 33.5 16.9999Z" stroke="#005697"/>
</svg>
