<svg width="34" height="34" viewBox="0 0 34 34" fill="none" xmlns="http://www.w3.org/2000/svg">
<circle cx="17" cy="17" r="16.5" fill="white" stroke="#005697"/>
<path d="M25.1304 16.322C25.0962 15.9032 24.893 15.5098 24.5725 15.2418L20.1649 11.4911C19.3201 10.7719 18.2437 10.3759 17.1342 10.3759H13.014C12.6217 10.3759 12.2478 10.2283 11.9612 9.96038L10.3995 8.5L9.58568 9.37024L11.1474 10.8306C11.6555 11.3057 12.3184 11.5674 13.014 11.5674H17.1341C17.9609 11.5674 18.763 11.8626 19.3928 12.3984L23.8024 16.1509L23.8073 16.1551C23.885 16.2198 23.9344 16.3161 23.943 16.4193C23.9473 16.4734 23.9433 16.5776 23.8666 16.6663C23.7436 16.8087 23.526 16.8265 23.381 16.7059L20.64 14.4236C20.0053 13.8951 19.2009 13.6042 18.3751 13.6042H15.1343C14.3191 13.6042 13.6558 14.2675 13.6558 15.0826C13.6558 15.8978 14.319 16.5611 15.1343 16.5611H18.2454C18.4036 16.5611 18.5324 16.6898 18.5324 16.8481C18.5324 17.0062 18.4037 17.1349 18.2454 17.1349H13.0805C12.3054 17.1349 11.5843 16.7175 11.1983 16.0453L10.8028 15.3567C10.5019 14.8326 10.1285 14.3545 9.69308 13.9354L8.07538 12.3782L7.24899 13.2365L8.86669 14.7936C9.22086 15.1345 9.52456 15.5236 9.76931 15.9498L10.1649 16.6384C10.7627 17.6795 11.8799 18.3263 13.0803 18.3263H18.2453C19.0605 18.3263 19.7236 17.663 19.7236 16.8478C19.7236 16.0326 19.0605 15.3693 18.2453 15.3693H15.1343C14.9762 15.3693 14.8475 15.2406 14.8475 15.0825C14.8475 14.9244 14.9762 14.7957 15.1343 14.7957H18.3752C18.9231 14.7957 19.4566 14.9886 19.8777 15.3391L22.6186 17.6214C23.2588 18.1545 24.2231 18.0756 24.7679 17.4456C25.0357 17.136 25.1644 16.7369 25.1304 16.322Z" fill="#005697"/>
<path d="M15.7238 20.5164C12.3121 21.4435 9.25438 22.8059 6.88086 24.4564L7.56113 25.4347C9.82402 23.8611 12.7546 22.5581 16.0364 21.6662C19.4954 20.7262 23.2242 20.2497 27.119 20.2497V19.0581C23.1187 19.0581 19.2849 19.5488 15.7238 20.5164Z" fill="#005697"/>
</svg>
