<svg width="34" height="34" viewBox="0 0 34 34" fill="none" xmlns="http://www.w3.org/2000/svg">
<path d="M23.0836 11.6294C23.1975 11.5997 23.3066 11.5582 23.4095 11.5062L23.2597 11.6562L23.2621 11.6572C23.2031 11.6464 23.1436 11.6371 23.0836 11.6294ZM16.0344 18.1105H16.4741L16.787 18.3829C16.5513 18.2629 16.2989 18.1706 16.0344 18.1105ZM10.9327 14.8556L10.827 14.7982C10.9205 14.8218 11.0157 14.8414 11.1122 14.8567C11.0129 14.8725 10.9151 14.8928 10.819 14.9173L10.9327 14.8556Z" fill="#1E1E1E" stroke="#005697"/>
<path d="M33.5 16.9999C33.5 26.0907 26.1137 33.4622 17 33.4622C7.88625 33.4622 0.5 26.0907 0.5 16.9999C0.5 7.90907 7.88625 0.537598 17 0.537598C26.1137 0.537598 33.5 7.90907 33.5 16.9999Z" stroke="#005697"/>
</svg>
