<svg width="50" height="50" viewBox="0 0 50 50" fill="none" xmlns="http://www.w3.org/2000/svg">
<path d="M25 49C38.2548 49 49 38.2548 49 25C49 11.7452 38.2548 1 25 1C11.7452 1 1 11.7452 1 25C1 38.2548 11.7452 49 25 49Z" stroke="#005697"/>
<path d="M35.5598 17.0873C36.1017 16.5487 36.4376 15.8044 36.4376 14.985C36.4376 13.3406 35.0859 12 33.4254 12H17.3564C14.4024 12 12 14.3792 12 17.3046C12 19.3164 13.1478 21.0475 14.818 21.9476C13.1497 22.8458 12 24.5768 12 26.5886C12 29.5141 14.4024 31.8932 17.3564 31.8932H21.3727C21.7417 31.8932 22.0427 32.1894 22.0427 32.5568V37.8614C22.0427 38.2268 22.3437 38.525 22.7127 38.525C23.0817 38.525 23.3827 38.2288 23.3827 37.8614V32.5568C23.3827 31.4605 22.4816 30.5681 21.3727 30.5681H17.3564C15.1365 30.5681 13.3401 28.787 13.3401 26.5906C13.3401 24.3941 15.1385 22.6131 17.3564 22.6131H33.4254C33.7944 22.6131 34.0955 22.3149 34.0955 21.9495C34.0955 21.5821 33.7964 21.286 33.4254 21.286H17.3564C15.1365 21.286 13.3401 19.503 13.3401 17.3065C13.3401 15.1101 15.1385 13.329 17.3564 13.329H33.4254C34.3499 13.329 35.0995 14.0734 35.0995 14.987C35.0995 15.9006 34.3499 16.643 33.4254 16.643H17.3564C16.9874 16.643 16.6863 16.9392 16.6863 17.3065C16.6863 17.6739 16.9874 17.972 17.3564 17.972H33.4254C35.6453 17.972 37.4417 19.753 37.4417 21.9495C37.4417 24.146 35.6433 25.927 33.4254 25.927H17.3564C16.9874 25.927 16.6863 26.2232 16.6863 26.5906C16.6863 26.9579 16.9874 27.2541 17.3564 27.2541H22.7127C24.9326 27.2541 26.731 29.0351 26.731 31.2316V37.8614C26.731 38.2268 27.03 38.525 27.401 38.525C27.77 38.525 28.071 38.2288 28.071 37.8614V31.2316C28.071 29.6391 27.3447 28.2254 26.2202 27.2541H33.4274C36.3813 27.2541 38.7837 24.8749 38.7837 21.9495C38.7818 19.7742 37.4534 17.9047 35.5598 17.0873Z" fill="#005697"/>
</svg>
