<?xml version="1.0" encoding="UTF-8"?>
<!DOCTYPE svg PUBLIC "-//W3C//DTD SVG 1.1//EN" "http://www.w3.org/Graphics/SVG/1.1/DTD/svg11.dtd">
<svg xmlns="http://www.w3.org/2000/svg" version="1.1" width="180px" height="180px" style="shape-rendering:geometricPrecision; text-rendering:geometricPrecision; image-rendering:optimizeQuality; fill-rule:evenodd; clip-rule:evenodd" xmlns:xlink="http://www.w3.org/1999/xlink">
<g><path style="opacity:1" fill="#075696" d="M -0.5,-0.5 C 59.5,-0.5 119.5,-0.5 179.5,-0.5C 179.5,59.5 179.5,119.5 179.5,179.5C 119.5,179.5 59.5,179.5 -0.5,179.5C -0.5,119.5 -0.5,59.5 -0.5,-0.5 Z"/></g>
<g><path style="opacity:1" fill="#793a5f" d="M 38.5,22.5 C 73.5016,22.3333 108.502,22.5 143.5,23C 151.226,27.8434 153.059,34.3434 149,42.5C 147.269,44.6166 145.102,46.1166 142.5,47C 108.5,47.6667 74.5,47.6667 40.5,47C 31.8382,43.3365 29.3382,37.1698 33,28.5C 34.3597,25.9774 36.193,23.9774 38.5,22.5 Z"/></g>
<g><path style="opacity:1" fill="#b43f2f" d="M 37.5,56.5 C 73.5015,56.3333 109.502,56.5 145.5,57C 153.47,65.0899 153.47,73.0899 145.5,81C 109.167,81.6667 72.8333,81.6667 36.5,81C 31.7981,76.0782 30.2981,70.2448 32,63.5C 32.9668,60.3794 34.8001,58.046 37.5,56.5 Z"/></g>
<g><path style="opacity:1" fill="#b5913c" d="M 37.5,90.5 C 73.5015,90.3333 109.502,90.5 145.5,91C 153.5,99.3333 153.5,107.667 145.5,116C 109.5,116.667 73.5,116.667 37.5,116C 33.0207,112.928 31.0207,108.595 31.5,103C 31.2625,97.6444 33.2625,93.4778 37.5,90.5 Z"/></g>
<g><path style="opacity:1" fill="#90913a" d="M 38.5,124.5 C 73.8349,124.333 109.168,124.5 144.5,125C 149.134,127.594 151.467,131.594 151.5,137C 151.818,142.556 149.818,146.89 145.5,150C 109.167,150.667 72.8333,150.667 36.5,150C 32.7555,146.676 31.0888,142.509 31.5,137.5C 30.9716,131.553 33.3049,127.22 38.5,124.5 Z"/></g>
</svg>
