<svg width="27" height="26" viewBox="0 0 27 26" fill="none" xmlns="http://www.w3.org/2000/svg">
<path d="M10.5059 20.4075C8.90437 15.1301 12.2885 13.2031 12.2885 13.2031C12.0517 16.0191 13.652 18.2133 13.652 18.2133C14.2407 18.0356 15.364 17.2057 15.364 17.2057C15.364 18.2133 14.7712 20.4064 14.7712 20.4064C14.7712 20.4064 16.8464 18.8019 17.4997 16.1368C18.1519 13.472 16.2571 10.7966 16.2571 10.7966C16.3711 12.6828 15.7331 14.538 14.4828 15.9553C14.5453 15.8831 14.5978 15.8029 14.6381 15.7158C14.8626 15.2666 15.2232 14.0993 15.0122 11.3956C14.7151 7.60034 11.2763 6 11.2763 6C11.5727 8.31234 10.6839 8.8451 8.60202 13.2342C6.5202 17.6225 10.5059 20.4075 10.5059 20.4075Z" fill="#005697"/>
<path d="M25.5578 13C25.5578 19.9025 19.9495 25.5 13.0289 25.5C6.10833 25.5 0.5 19.9025 0.5 13C0.5 6.09749 6.10833 0.5 13.0289 0.5C19.9495 0.5 25.5578 6.09749 25.5578 13Z" stroke="#005697"/>
</svg>
