<svg width="27" height="26" viewBox="0 0 27 26" fill="none" xmlns="http://www.w3.org/2000/svg">
<path d="M18.8888 12.2763C18.5481 11.584 18.1365 10.9301 17.6643 10.3244L18.7217 9.26702L16.7329 7.27827L15.6755 8.3357C15.0699 7.86351 14.4159 7.45187 13.7237 7.11116L13.4978 7L10.4884 10.0094L10.5995 10.2352C10.9403 10.9275 11.3519 11.5814 11.8241 12.1871L7.41189 16.5993C7.14627 16.8649 7 17.2181 7 17.5937C7 17.9693 7.14625 18.3225 7.41187 18.5881C7.68604 18.8622 8.04613 18.9993 8.40625 18.9993C8.76634 18.9993 9.12646 18.8622 9.40061 18.5881L13.8129 14.1759C14.4185 14.6481 15.0724 15.0597 15.7647 15.4004L15.9906 15.5116L19 12.5021L18.8888 12.2763ZM16.7329 8.27263L17.7273 9.26699L17.2131 9.78114C16.9024 9.4297 16.5702 9.09749 16.2188 8.78676L16.7329 8.27263ZM8.90343 18.0909C8.62928 18.3651 8.18322 18.365 7.90905 18.0909C7.77625 17.9581 7.70312 17.7815 7.70312 17.5937C7.70312 17.4059 7.77627 17.2293 7.90907 17.0965L11.2639 13.7417L12.2583 14.7361L8.90343 18.0909ZM12.7554 14.2389L11.761 13.2445L12.2752 12.7304C12.5859 13.0818 12.9181 13.414 13.2696 13.7248L12.7554 14.2389ZM15.8516 14.6562C13.9332 13.654 12.346 12.0668 11.3438 10.1484L13.6368 7.85542C15.5552 8.85761 17.1424 10.4447 18.1446 12.3632L15.8516 14.6562Z" fill="#005697"/>
<path d="M25.5578 13C25.5578 19.9025 19.9495 25.5 13.0289 25.5C6.10833 25.5 0.5 19.9025 0.5 13C0.5 6.09749 6.10833 0.5 13.0289 0.5C19.9495 0.5 25.5578 6.09749 25.5578 13Z" stroke="#005697"/>
</svg>
