<svg width="27" height="26" viewBox="0 0 27 26" fill="none" xmlns="http://www.w3.org/2000/svg">
<path d="M7.90429 8.0835C7.45625 8.0835 7.0918 8.44795 7.0918 8.89599C7.0918 9.04569 7.21291 9.16681 7.36261 9.16681C7.51231 9.16681 7.63343 9.04569 7.63343 8.89599C7.63348 8.74654 7.75515 8.62513 7.90429 8.62513C8.054 8.62513 8.17511 8.50396 8.17511 8.35431C8.17511 8.20461 8.054 8.0835 7.90429 8.0835Z" fill="#005697"/>
<path d="M18.9284 19.5455L9.68188 9.50609C9.74799 9.31353 9.79161 9.11046 9.79161 8.89586C9.79166 7.85058 8.94108 7 7.89581 7C6.85058 7 6 7.85058 6 8.89586C6 9.94108 6.85058 10.7917 7.89581 10.7917C8.11061 10.7917 8.31379 10.748 8.50645 10.6818L18.5454 19.9282C18.5973 19.976 18.6634 19.9999 18.729 19.9999C18.7982 19.9999 18.8676 19.9734 18.9205 19.9205C19.0231 19.8179 19.0268 19.6524 18.9284 19.5455ZM7.89581 10.25C7.14892 10.25 6.54163 9.64249 6.54163 8.89586C6.54163 8.14922 7.14887 7.54168 7.89581 7.54168C8.64274 7.54168 9.24998 8.14922 9.24998 8.89586C9.24998 9.64249 8.64269 10.25 7.89581 10.25ZM9.01736 10.4159C9.16939 10.3034 9.3033 10.1694 9.41588 10.0174L14.0662 15.0659L9.01736 10.4159Z" fill="#005697"/>
<path d="M25.5578 13C25.5578 19.9025 19.9495 25.5 13.0289 25.5C6.10833 25.5 0.5 19.9025 0.5 13C0.5 6.09749 6.10833 0.5 13.0289 0.5C19.9495 0.5 25.5578 6.09749 25.5578 13Z" stroke="#005697"/>
</svg>
