<svg width="27" height="26" viewBox="0 0 27 26" fill="none" xmlns="http://www.w3.org/2000/svg">
<path d="M18.2061 8.48364L16.4563 7.02769C16.4193 6.99878 16.367 6.99188 16.3224 7.01003C16.2778 7.02817 16.2491 7.06801 16.249 7.11193V7.78389C16.249 7.84576 16.193 7.8959 16.124 7.8959H9.87464C9.8056 7.8959 9.74965 7.84573 9.74965 7.78389V7.1119C9.74962 7.06798 9.72091 7.02814 9.67631 7.01C9.63168 6.99186 9.57935 6.99878 9.54242 7.02766L7.79259 8.48364C7.76549 8.50491 7.75 8.53559 7.75 8.56786C7.75 8.60014 7.76552 8.63082 7.79259 8.65208L9.54242 10.108C9.57932 10.1369 9.63165 10.1438 9.67631 10.1257C9.72093 10.1076 9.74962 10.0677 9.74965 10.0238V9.35183C9.74965 9.28997 9.8056 9.23983 9.87464 9.23983H16.124C16.1931 9.23983 16.249 9.28997 16.249 9.35183V10.0238C16.2491 10.0677 16.2778 10.1076 16.3224 10.1257C16.367 10.1438 16.4193 10.1369 16.4563 10.108L18.2061 8.65208C18.2332 8.63082 18.2487 8.60011 18.2487 8.56786C18.2487 8.53561 18.2332 8.50491 18.2061 8.48364Z" fill="#005697"/>
<path d="M18.2061 18.3396L16.4563 16.8836C16.4193 16.8547 16.367 16.8478 16.3224 16.866C16.2778 16.8841 16.2491 16.924 16.249 16.9679V17.6398C16.249 17.7017 16.193 17.7518 16.124 17.7518H9.87464C9.8056 17.7518 9.74965 17.7017 9.74965 17.6398V16.9679C9.74962 16.924 9.72091 16.8841 9.67631 16.866C9.63168 16.8478 9.57935 16.8547 9.54242 16.8836L7.79259 18.3396C7.76549 18.3609 7.75 18.3916 7.75 18.4238C7.75 18.4561 7.76552 18.4868 7.79259 18.508L9.54242 19.964C9.57932 19.9929 9.63165 19.9998 9.67631 19.9816C9.72093 19.9635 9.74962 19.9237 9.74965 19.8797V19.2078C9.74965 19.1459 9.8056 19.0958 9.87464 19.0958H16.124C16.1931 19.0958 16.249 19.1459 16.249 19.2078V19.8797C16.2491 19.9236 16.2778 19.9635 16.3224 19.9816C16.367 19.9998 16.4193 19.9929 16.4563 19.964L18.2061 18.508C18.2332 18.4867 18.2487 18.4561 18.2487 18.4238C18.2487 18.3916 18.2332 18.3609 18.2061 18.3396Z" fill="#005697"/>
<path d="M6.00027 14.6424L6.69071 15.4893C6.44899 15.6199 6.21823 15.766 6.00027 15.9266V14.6424ZM7.12941 15.2669L6.00027 13.8831V12.8039L7.78434 14.9926C7.54336 15.083 7.32514 15.1758 7.12941 15.2669ZM8.26704 14.8252L6.00027 12.0443V11.0679C6.05728 11.1105 6.12252 11.1575 6.196 11.2064L8.98098 14.6209C8.72499 14.685 8.48953 14.7538 8.26704 14.8252ZM9.50344 14.5022L7.3054 11.8071C7.7085 11.9832 8.12511 12.1334 8.55203 12.2564L10.2724 14.364C10.0024 14.4052 9.74664 14.4516 9.50344 14.5022ZM10.8308 14.2894L9.33518 12.4569C9.65616 12.5279 10.0004 12.5913 10.3706 12.646L11.6497 14.2139C11.3649 14.2335 11.0919 14.2586 10.8308 14.2894ZM12.2444 14.1841L11.058 12.7295C11.358 12.76 11.669 12.7844 11.997 12.8005L13.1136 14.1705C13.0753 14.1705 13.0386 14.1691 12.9996 14.1691C12.7391 14.1691 12.4889 14.1751 12.2444 14.1841ZM13.7443 14.1841L12.6334 12.8216C12.7544 12.8236 12.8754 12.8256 13.0001 12.8256C13.1739 12.8256 13.3439 12.8235 13.51 12.8193L14.67 14.2401C14.3745 14.2143 14.0658 14.1955 13.7438 14.1837L13.7443 14.1841ZM15.3481 14.3118L14.1098 12.7947C14.3977 12.7788 14.6744 12.7573 14.9397 12.7302L16.3623 14.4744C16.0461 14.4115 15.7071 14.357 15.3477 14.3113L15.3481 14.3118ZM17.1229 14.6491L15.5033 12.6625C15.7755 12.625 16.0347 12.5827 16.281 12.5355L18.3156 15.0308C17.9278 14.8813 17.5298 14.7537 17.1242 14.6487L17.1229 14.6491ZM19.3077 15.4893L16.808 12.4244C17.065 12.3647 17.3066 12.3007 17.5329 12.2325L19.999 15.2571V15.9266C19.7806 15.7661 19.5496 15.6199 19.3077 15.4893ZM19.9989 12.6583L19.1345 11.5979C19.4392 11.4439 19.7284 11.2666 19.9989 11.0679V12.6583ZM18.6881 11.8096L19.9989 13.4181V14.4975L18.0216 12.0721C18.2651 11.9863 18.4871 11.898 18.6881 11.8096ZM6.08551 10.1925C6.13102 10.1567 6.18963 10.137 6.25023 10.1372H6.26722C6.3351 10.1416 6.39819 10.1702 6.4422 10.2167C6.4597 10.234 8.23977 11.9287 13.0001 11.9287C17.7704 11.9287 19.544 10.2306 19.5615 10.2132C19.6543 10.1276 19.8057 10.1224 19.9056 10.2012C20.0056 10.28 20.0192 10.4151 19.9364 10.5086C19.8614 10.5848 18.0573 12.3767 12.9991 12.3767C7.94082 12.3767 6.13623 10.5848 6.0615 10.5084C5.97091 10.4152 5.98164 10.2739 6.08551 10.1925ZM19.9139 16.8015C19.8085 16.8817 19.6508 16.8718 19.559 16.7791C19.4872 16.7092 17.7464 15.0653 12.9996 15.0653C8.22929 15.0653 6.45573 16.7634 6.43821 16.7811C6.34535 16.8666 6.19399 16.8719 6.094 16.7931C5.99402 16.7143 5.98048 16.5791 6.06325 16.4857C6.13824 16.4095 7.94232 14.6173 13.0006 14.6173C18.0588 14.6173 19.8634 16.4093 19.9382 16.4859C20.029 16.5789 20.0186 16.7202 19.9149 16.8017L19.9139 16.8015Z" fill="#005697"/>
<path d="M25.5578 13C25.5578 19.9025 19.9495 25.5 13.0289 25.5C6.10833 25.5 0.5 19.9025 0.5 13C0.5 6.09749 6.10833 0.5 13.0289 0.5C19.9495 0.5 25.5578 6.09749 25.5578 13Z" stroke="#005697"/>
</svg>
